<svg width="64" height="64" viewBox="0 0 64 64" fill="none" xmlns="http://www.w3.org/2000/svg">
    <path fill-rule="evenodd" clip-rule="evenodd" d="M30.643 6.552A6.555 6.555 0 0 0 24.09 0a6.555 6.555 0 0 0-6.55 6.552 6.555 6.555 0 0 0 6.55 6.551 6.555 6.555 0 0 0 6.553-6.55zm11.803 23.076H34.65l1.412 6.811h4.524a5.96 5.96 0 0 1 2.798.694 5.44 5.44 0 0 1 1.912 1.6c.2.256.38.527.538.814l4.304 7.736c.062.114.18.186.31.192l.034.001 2.266.09c.411.018.787.233 1.008.58l.634.984a1.259 1.259 0 0 1-.248 1.642c-1.039.88-2.81 2.375-3.978 3.36a1.431 1.431 0 0 1-2.069-.232c-1.976-2.626-6.483-8.608-6.483-8.608H29.722a5.964 5.964 0 0 1-3.274-.974 6.378 6.378 0 0 1-3.141-5.496L20.19 21.408a6.38 6.38 0 0 1 6.378-6.378 6.38 6.38 0 0 1 6.377 6.378l.602 2.902h8.9a2.66 2.66 0 0 1 0 5.318z" fill="#40A79D"/>
    <path fill-rule="evenodd" clip-rule="evenodd" d="M19.702 32.29a15.2 15.2 0 0 0-5.614 11.806c0 8.406 6.824 15.23 15.23 15.23 5.466 0 10.262-2.887 12.948-7.217 0 0 2.86 3.645 3.067 3.8C41.707 60.818 35.88 64 29.317 64 18.33 64 9.413 55.082 9.413 44.096c0-7.044 3.668-13.24 9.197-16.777.04-.025 1.106 4.958 1.092 4.97z" fill="#8DE0D8"/>
</svg>
