<svg width="64" height="64" viewBox="0 0 64 64" fill="none" xmlns="http://www.w3.org/2000/svg">
    <path fill-rule="evenodd" clip-rule="evenodd" d="M30.729 47.887s-4.922-3.687-11.292-4.91C12.962 41.73 4.494 44.18 4.494 44.18V10.337s8.441-2.455 14.903-1.212c6.384 1.227 11.333 4.918 11.333 4.918v33.844zm28.23-37.426v33.844s-7.763-2.45-14.238-1.207c-6.37 1.226-11.453 4.911-11.453 4.911V14.165s5.11-3.69 11.495-4.917c6.459-1.243 14.197 1.213 14.197 1.213z" fill="#40A79D"/>
    <path fill-rule="evenodd" clip-rule="evenodd" d="M61.445 13.412v34.4s-9.786-2.752-17.057-1.354c-6.513 1.252-11.305 4.785-12.114 5.41v.104s-.024-.02-.068-.053l-.066.053v-.105c-.808-.624-5.6-4.156-12.112-5.409-7.273-1.399-18.017 1.354-18.017 1.354V13.31L0 13.612v37.059s11.71-3.014 19.675-1.48c7.832 1.506 12.565 6.038 12.565 6.038s4.732-4.532 12.564-6.039C52.771 47.657 64 50.67 64 50.67V13.773a62.7 62.7 0 0 0-2.554-.36z" fill="#8DE0D8"/>
</svg>
