<svg width="64" height="64" viewBox="0 0 64 64" fill="none" xmlns="http://www.w3.org/2000/svg">
    <path d="M43.612 52.84a23.896 23.896 0 0 1-26.794-2.435 23.89 23.89 0 0 1-7.536-25.827l.214 1.099a2.387 2.387 0 0 0 2.39 1.911h.477a2.388 2.388 0 0 0 1.864-2.819l-1.505-7.764a2.39 2.39 0 0 0-2.819-1.864l-7.74 1.553h-.001a2.401 2.401 0 0 0 .478 4.778h.478l2.437-.621A28.673 28.673 0 0 0 14.5 54.683a28.67 28.67 0 0 0 17.502 5.947A28.446 28.446 0 0 0 45.93 57a2.398 2.398 0 0 0-2.39-4.157l.071-.001z" fill="#8DE0D8"/>
    <path d="M31.835 15.714a2.388 2.388 0 0 0-2.39 2.39v1.265h-.286a7.166 7.166 0 0 0-6.88 7.431 7.17 7.17 0 0 0 6.88 7.454h.287v5.327h-2.987a2.388 2.388 0 0 0-2.069 3.584 2.389 2.389 0 0 0 2.07 1.195h2.986c-.003.328.062.653.19.956v1.075a2.389 2.389 0 0 0 4.779 0v-2.055a7.167 7.167 0 0 0 6.976-7.43 7.169 7.169 0 0 0-6.857-7.454h-.31v-5.328h2.986a2.389 2.389 0 1 0 0-4.778h-2.986V18.08a2.389 2.389 0 0 0-2.39-2.366zm2.7 18.54a2.39 2.39 0 0 1 2.078 2.652 2.39 2.39 0 0 1-2.079 2.676h-.31V34.23l.31.024zm-5.066-4.779h-.287a2.39 2.39 0 0 1-2.126-2.675 2.39 2.39 0 0 1 2.103-2.676h.287l.023 5.351z" fill="#40A79D"/>
    <path d="m61.077 42.711-2.771.55A28.668 28.668 0 0 0 18.002 6.97a2.397 2.397 0 1 0 2.389 4.157 23.887 23.887 0 0 1 26.692 2.36 23.892 23.892 0 0 1 7.71 25.664l-.143-.74a2.434 2.434 0 1 0-4.779.932l1.553 7.74a2.387 2.387 0 0 0 2.39 1.912h.477l7.74-1.553a2.434 2.434 0 0 0-.93-4.779l-.024.048z" fill="#8DE0D8"/>
</svg>
