<svg width="64" height="64" viewBox="0 0 64 64" fill="none" xmlns="http://www.w3.org/2000/svg">
    <path d="M63.891 43.437a3.04 3.04 0 0 0-2.92-2.226c-.306 0-.6.053-.907.146l-7.68 2.427c-2.452.773-4.72 2.04-6.746 3.614-2.266 1.746-4.746 3.173-6.72 3.173H27.56c-.733 0-1.333-.6-1.333-1.334 0-.733.6-1.333 1.333-1.333h11.36c1.64 0 3.08-1.96 2.44-3.973-.427-1.32-1.747-2.147-3.134-2.147h-7.333c-.893 0-1.76-.24-2.52-.707l-8.586-5.36a4.83 4.83 0 0 0-2.547-.733h-6.173v-.666a2.384 2.384 0 0 0-2.386-2.386l-6.307-.027A2.381 2.381 0 0 0 0 34.29v19.493a2.379 2.379 0 0 0 2.373 2.374l6.307.026a2.382 2.382 0 0 0 2.386-2.373v-1.266h1c.573 0 1.133.133 1.654.373l10.892 5.186a11.426 11.426 0 0 0 8.933.374 943.075 943.075 0 0 1 5.24-1.987c7.813-2.947 18.492-7.613 23.253-9.426a3.016 3.016 0 0 0 1.854-3.627zM5.534 53.264a1.909 1.909 0 0 1-1.92-1.907c0-1.053.853-1.906 1.92-1.906a1.906 1.906 0 1 1 0 3.813z" fill="#40A79D"/>
    <path d="M37.658 4.774c-10.972 0-19.865 8.893-19.865 19.853 0 2.866.613 5.587 1.707 8.053.586.174 1.16.44 1.693.773l6.44 4.013c-3.827-2.986-6.28-7.626-6.28-12.84 0-8.972 7.32-16.292 16.306-16.292 8.973 0 16.293 7.32 16.293 16.293 0 7.506-5.107 13.852-12.013 15.731.907.694 1.6 1.64 1.96 2.747.04.12.066.227.093.347 7.853-2.64 13.52-10.066 13.52-18.825 0-10.96-8.894-19.854-19.852-19.854l-.002.001z" fill="#8DE0D8"/>
    <path d="M37.654 11.003c-7.516 0-13.629 6.113-13.629 13.629 0 7.515 6.113 13.628 13.629 13.628 7.513 0 13.627-6.113 13.627-13.628s-6.114-13.629-13.627-13.629zm-.008 12.238c2.527 0 4.579 2.077 4.579 4.63 0 2.038-1.296 3.808-3.194 4.41v.758a1.39 1.39 0 0 1-1.385 1.398c-.757 0-1.372-.629-1.372-1.398v-.757c-1.898-.603-3.193-2.373-3.193-4.412 0-.77.628-1.397 1.385-1.397s1.385.628 1.385 1.397c0 1.013.808 1.847 1.795 1.847 1 0 1.809-.834 1.809-1.847s-.809-1.846-1.809-1.846c-2.513 0-4.565-2.078-4.565-4.63a4.628 4.628 0 0 1 3.193-4.424v-.744c0-.77.616-1.398 1.372-1.398.77 0 1.386.629 1.386 1.398v.744a4.629 4.629 0 0 1 3.193 4.424c0 .77-.629 1.398-1.385 1.398a1.399 1.399 0 0 1-1.386-1.398c0-1.013-.808-1.847-1.808-1.847-.987 0-1.795.834-1.795 1.847s.808 1.847 1.795 1.847z" fill="#40A79D"/>
</svg>
