<svg width="64" height="64" viewBox="0 0 64 64" fill="none" xmlns="http://www.w3.org/2000/svg">
    <path fill="#8DE0D8" d="M15.889 36.444h17.778v20H15.889z"/>
    <path fill-rule="evenodd" clip-rule="evenodd" d="M36.342 8.133c5.695 6.64 16.541 19.356 18.127 21.212.643.65.192 1.777-.741 1.777H24.823V11.657a423.668 423.668 0 0 0 3.032-3.642c2.987-3.629 5.331-3.56 8.486.118zm-11.52 50.534v-6.059h3.238a1.912 1.912 0 0 0 1.905-1.906V41.91a1.911 1.911 0 0 0-1.905-1.905h-3.237v-6.588h26.156c.576 0 1.043.468 1.043 1.044v23.163c0 .576-.467 1.044-1.043 1.044h-2.66a1.044 1.044 0 0 1-1.044-1.044V44.39a.44.44 0 0 0-.436-.436h-7.6a.44.44 0 0 0-.436.436v13.233c0 .576-.467 1.044-1.043 1.044H24.823zm0-27.547H10.355c-1.076-.017-1.48-.845-.79-1.72 5.07-5.928 10.234-11.776 15.258-17.744v19.465zm0 2.296v6.588h-3.236a1.911 1.911 0 0 0-1.906 1.906v8.792c0 1.049.858 1.906 1.906 1.906h3.237v6.059h-11.72a1.043 1.043 0 0 1-1.043-1.044V34.46c0-.576.467-1.044 1.044-1.044h11.719z" fill="#40A79D"/>
</svg>
