<svg width="360" height="360" viewBox="0 0 360 360" fill="none" xmlns="http://www.w3.org/2000/svg">
    <path d="M356.842 141.584a.63.63 0 0 1-.361-.113L181.813 19.827a3.17 3.17 0 0 0-3.618.006L4.784 141.47a.632.632 0 0 1-.725-1.035l173.41-121.637a4.437 4.437 0 0 1 5.065-.008l174.669 121.644a.627.627 0 0 1 .242.708.642.642 0 0 1-.229.32.638.638 0 0 1-.374.122z" fill="#191B30"/>
    <path d="M14.693 145.896 180.174 23.254l166.737 131.368-158.211 93.79-85.894-19.579-88.113-82.937z" fill="#C4C4C4"/>
    <path d="M110.056 306.342H28.304a3.825 3.825 0 0 1-2.704-1.117 3.82 3.82 0 0 1 2.704-6.522h81.752a3.824 3.824 0 0 1 2.704 1.117 3.819 3.819 0 0 1-2.704 6.522zM57.635 289.921H28.304a3.825 3.825 0 0 1-2.704-1.117 3.82 3.82 0 0 1 2.704-6.522h29.33a3.826 3.826 0 0 1 3.534 2.357 3.823 3.823 0 0 1-2.07 4.993c-.464.191-.961.29-1.463.289z" fill="#40A79D"/>
    <path d="M182.501 214.206a4.772 4.772 0 0 1-1.812-.355L78.632 171.504V38.952a4.426 4.426 0 0 1 4.42-4.42h195.79a4.427 4.427 0 0 1 4.421 4.42v132.645l-.192.082-98.703 42.151a4.808 4.808 0 0 1-1.867.376z" fill="#fff"/>
    <path d="M182.501 214.521a5.115 5.115 0 0 1-1.932-.378L78.316 171.715V38.952a4.742 4.742 0 0 1 4.736-4.737h195.79a4.743 4.743 0 0 1 4.737 4.737v132.853l-99.087 42.315a5.135 5.135 0 0 1-1.991.401zm-102.922-43.65 101.471 42.104a3.865 3.865 0 0 0 2.948-.018l98.318-41.986V38.951a3.479 3.479 0 0 0-3.474-3.473H83.052a3.478 3.478 0 0 0-3.473 3.474V170.87z" fill="#191B30"/>
    <path d="M355.579 140.321h-.127l-72.505 30.96-99.202 42.36a3.202 3.202 0 0 1-2.45.013L78.947 171.193 4.661 140.372l-.114-.051h-.126A4.429 4.429 0 0 0 0 144.742v192a4.427 4.427 0 0 0 4.421 4.421H355.58a4.425 4.425 0 0 0 4.421-4.421v-192a4.425 4.425 0 0 0-4.421-4.421zm3.158 196.421a3.162 3.162 0 0 1-3.158 3.158H4.421a3.158 3.158 0 0 1-3.158-3.158v-192a3.163 3.163 0 0 1 3.038-3.158l74.646 30.973 101.862 42.265a4.493 4.493 0 0 0 3.435-.019l98.703-42.151 72.758-31.068a3.167 3.167 0 0 1 3.032 3.158v192z" fill="#191B30"/>
    <path d="M181.481 176.619a17.367 17.367 0 0 1-10.45-3.471l-.187-.14-39.354-30.131a17.488 17.488 0 0 1-6.258-18.392 17.48 17.48 0 0 1 14.597-12.82 17.505 17.505 0 0 1 6.808.441 17.505 17.505 0 0 1 6.121 3.013l25.49 19.546 60.239-78.56a17.48 17.48 0 0 1 24.514-3.236l-.375.509.384-.501a17.5 17.5 0 0 1 3.236 24.514l-70.855 92.405a17.49 17.49 0 0 1-13.91 6.823z" fill="#40A79D"/>
</svg>
