<svg width="360" height="360" viewBox="0 0 360 360" fill="none" xmlns="http://www.w3.org/2000/svg">
    <mask id="voiv5xlw2a" style="mask-type:alpha" maskUnits="userSpaceOnUse" x="0" y="12" width="360" height="336">
        <path fill="#C4C4C4" d="M0 12h360v335.821H0z"/>
    </mask>
    <g mask="url(#voiv5xlw2a)">
        <path d="M359.967 183.554H356V74.891a62.902 62.902 0 0 0-18.42-44.47A62.887 62.887 0 0 0 293.109 12H62.891A62.89 62.89 0 0 0 0 74.891v596.134a62.897 62.897 0 0 0 18.42 44.471 62.881 62.881 0 0 0 44.471 18.421H293.11a62.88 62.88 0 0 0 44.47-18.421A62.898 62.898 0 0 0 356 671.026V260.903h3.967v-77.349z" fill="#191B30"/>
        <path d="M342.72 75.077v595.266a46.97 46.97 0 0 1-28.999 43.388 46.976 46.976 0 0 1-17.975 3.569H64.42a46.955 46.955 0 0 1-46.957-46.957V75.077A46.953 46.953 0 0 1 64.42 28.12h28.073a22.324 22.324 0 0 0 20.664 30.734h131.885a22.303 22.303 0 0 0 22.206-20.028 22.3 22.3 0 0 0-1.54-10.706h30.038a46.958 46.958 0 0 1 46.974 46.957z" fill="#fff"/>
        <path d="M342.719 75.075v595.266a46.956 46.956 0 0 1-46.974 46.957H64.419a46.955 46.955 0 0 1-46.957-46.957V75.075A46.952 46.952 0 0 1 64.42 28.118h28.073a22.324 22.324 0 0 0 20.664 30.734h131.886a22.3 22.3 0 0 0 20.665-30.734h30.038a46.956 46.956 0 0 1 46.974 46.957z" fill="#fff"/>
        <mask id="2xxbe5909b" style="mask-type:alpha" maskUnits="userSpaceOnUse" x="17" y="28" width="326" height="690">
            <path d="M342.719 75.076v595.266a46.956 46.956 0 0 1-46.973 46.957H64.42a46.955 46.955 0 0 1-46.957-46.957V75.076A46.952 46.952 0 0 1 64.42 28.119h28.072a22.325 22.325 0 0 0 20.665 30.734h131.885a22.3 22.3 0 0 0 20.665-30.734h30.039a46.953 46.953 0 0 1 43.397 28.983 46.954 46.954 0 0 1 3.576 17.974z" fill="#fff"/>
        </mask>
        <g mask="url(#2xxbe5909b)">
            <path fill="#F0FEFD" d="M17.463 24.09h325.263v100.746H17.463z"/>
        </g>
        <path d="M342.613 75.323v129.479a139.074 139.074 0 0 1-160.17-73.081 139.093 139.093 0 0 1-14.299-61.348c0-3.797.153-7.555.458-11.273h76.334a22.303 22.303 0 0 0 18.527-9.857 22.292 22.292 0 0 0 2.138-20.877h30.039a46.957 46.957 0 0 1 46.973 46.957z" fill="#F0F0F0" fill-opacity=".3"/>
        <rect x="30.896" y="157.074" width="85.97" height="5.373" rx="2.687" fill="#5DC6BC"/>
        <rect x="130.299" y="157.074" width="85.97" height="5.373" rx="2.687" fill="#5DC6BC"/>
        <rect x="229.703" y="157.074" width="85.97" height="5.373" rx="2.687" fill="#C4C4C4"/>
        <path d="M31.367 143.349a2.79 2.79 0 0 1 .196-.969c.118-.296.29-.548.515-.755.225-.214.501-.377.827-.489a3.419 3.419 0 0 1 1.155-.178c.516 0 .94.068 1.271.204.338.131.605.291.8.48.202.184.341.377.418.578.083.196.13.362.142.498a.205.205 0 0 1-.07.178.25.25 0 0 1-.17.062h-.72a.266.266 0 0 1-.16-.045.413.413 0 0 1-.08-.106 1.677 1.677 0 0 0-.097-.151.85.85 0 0 0-.24-.249 1.428 1.428 0 0 0-.427-.231 1.808 1.808 0 0 0-.667-.107c-.444 0-.8.122-1.066.364-.267.237-.409.557-.427.96a13.886 13.886 0 0 0 0 1.449c.018.492.16.85.427 1.076.267.219.622.328 1.066.328.22 0 .421-.023.605-.071.184-.047.34-.124.47-.231.137-.106.24-.246.312-.418.077-.177.115-.394.115-.648v-.071h-1.084a.23.23 0 0 1-.169-.072.228.228 0 0 1-.07-.168v-.631c0-.066.023-.122.07-.169a.228.228 0 0 1 .17-.071h2.043c.066 0 .122.023.17.071a.229.229 0 0 1 .07.169v.977c0 .356-.056.685-.169.987a2.114 2.114 0 0 1-.506.773 2.446 2.446 0 0 1-.845.507 3.583 3.583 0 0 1-1.182.177c-.45 0-.841-.059-1.173-.177a2.261 2.261 0 0 1-.826-.498 2.18 2.18 0 0 1-.507-.764 3.11 3.11 0 0 1-.187-.987 46.548 46.548 0 0 1-.018-.373v-.836l.018-.373zm8.595.364c-.355 0-.613.08-.773.24-.154.154-.231.409-.231.765v2.311a.228.228 0 0 1-.071.168.23.23 0 0 1-.17.072h-.675a.23.23 0 0 1-.169-.072.228.228 0 0 1-.07-.168v-4.142a.23.23 0 0 1 .07-.169.228.228 0 0 1 .17-.071h.675c.065 0 .121.023.169.071a.23.23 0 0 1 .07.169v.204c.155-.142.318-.252.49-.329.177-.077.408-.115.693-.115h.4c.065 0 .121.023.169.071a.23.23 0 0 1 .07.169v.586a.229.229 0 0 1-.07.169.228.228 0 0 1-.17.071h-.577zm1.486.071c.023-.124.077-.257.16-.4.089-.142.21-.275.364-.399a1.96 1.96 0 0 1 .578-.303c.231-.083.498-.124.8-.124.302 0 .575.041.818.124.242.077.45.193.622.347.178.154.314.35.409.587.094.231.142.497.142.799v2.614a.228.228 0 0 1-.071.168.23.23 0 0 1-.17.072h-.675a.23.23 0 0 1-.168-.072.228.228 0 0 1-.072-.168v-.294c-.124.172-.305.32-.542.445-.23.118-.527.177-.889.177-.254 0-.482-.032-.684-.097a1.453 1.453 0 0 1-.507-.294 1.352 1.352 0 0 1-.32-.435 1.453 1.453 0 0 1-.106-.56c0-.409.145-.729.435-.96.29-.231.679-.388 1.165-.471l1.448-.249c0-.243-.08-.415-.24-.515a1.095 1.095 0 0 0-.595-.152.78.78 0 0 0-.347.063 1.003 1.003 0 0 0-.24.169.489.489 0 0 1-.15.097.354.354 0 0 1-.143.027h-.827a.227.227 0 0 1-.15-.053c-.042-.036-.057-.083-.045-.143zm1.484 2.507c.202 0 .38-.027.533-.08.16-.059.294-.136.4-.231a.956.956 0 0 0 .24-.32.882.882 0 0 0 .08-.365v-.088l-1.208.213c-.243.041-.418.104-.525.186a.374.374 0 0 0-.16.32c0 .125.062.217.187.276.13.059.281.089.453.089zm7.93.738a.228.228 0 0 1-.07.168.23.23 0 0 1-.17.072h-.675a.23.23 0 0 1-.169-.072.228.228 0 0 1-.07-.168v-2.258c0-.356-.084-.64-.25-.853-.165-.214-.42-.32-.764-.32-.314 0-.563.106-.746.32-.178.213-.267.497-.267.853v2.258a.228.228 0 0 1-.071.168.23.23 0 0 1-.17.072h-.674a.23.23 0 0 1-.17-.072.228.228 0 0 1-.07-.168v-4.142a.23.23 0 0 1 .07-.169.228.228 0 0 1 .17-.071h.675c.065 0 .121.023.169.071a.23.23 0 0 1 .07.169v.204c.155-.154.336-.281.543-.382.208-.101.453-.151.738-.151.361 0 .663.056.906.169.243.112.439.263.587.453.148.19.252.412.311.667.065.249.098.512.098.791v2.391zm2.696-1.431c0 .183.047.331.142.444.1.107.284.16.551.16h.542c.065 0 .122.024.17.071a.23.23 0 0 1 .07.169v.587a.228.228 0 0 1-.07.168.23.23 0 0 1-.17.072h-.657c-.558 0-.987-.134-1.29-.4-.295-.273-.444-.688-.444-1.245v-1.911h-.586a.228.228 0 0 1-.17-.071.229.229 0 0 1-.07-.169v-.586a.23.23 0 0 1 .07-.169.228.228 0 0 1 .17-.071h.586v-1.449c0-.065.024-.121.072-.169a.232.232 0 0 1 .168-.071h.676c.065 0 .121.024.169.071a.232.232 0 0 1 .07.169v1.449h1.147c.066 0 .122.023.17.071a.23.23 0 0 1 .07.169v.586a.229.229 0 0 1-.07.169.228.228 0 0 1-.17.071h-1.146v1.885zm4.866.346a.218.218 0 0 0-.063-.16.583.583 0 0 0-.222-.115 3.258 3.258 0 0 0-.409-.107 60.764 60.764 0 0 1-.657-.142 2.735 2.735 0 0 1-.65-.222 1.461 1.461 0 0 1-.417-.311 1.05 1.05 0 0 1-.213-.4 1.913 1.913 0 0 1-.063-.498c0-.178.042-.353.125-.525.083-.171.201-.322.356-.453.16-.136.352-.246.577-.329.225-.083.483-.124.774-.124.29 0 .548.032.773.098.23.065.426.151.586.257.16.107.285.231.374.374.088.136.139.275.15.417a.192.192 0 0 1-.07.169.228.228 0 0 1-.17.071h-.684a.385.385 0 0 1-.204-.044 3.813 3.813 0 0 0-.142-.116.711.711 0 0 0-.214-.106 1.123 1.123 0 0 0-.4-.054c-.177 0-.334.027-.47.08-.137.054-.205.149-.205.285 0 .065.015.121.044.169.036.041.098.08.187.115.095.036.222.074.382.116.166.035.38.08.64.133.527.113.898.29 1.111.533.22.237.33.534.33.889 0 .178-.045.353-.134.525-.09.166-.22.317-.391.453-.166.13-.374.237-.623.32a2.733 2.733 0 0 1-.826.115c-.314 0-.593-.035-.836-.106a2.194 2.194 0 0 1-.604-.294 1.345 1.345 0 0 1-.382-.399.928.928 0 0 1-.142-.436.204.204 0 0 1 .062-.169.263.263 0 0 1 .178-.071h.684c.089 0 .154.021.195.062a3.6 3.6 0 0 1 .152.142c.059.054.139.101.24.143.1.041.251.062.453.062.089 0 .18-.006.275-.018.095-.012.181-.03.258-.053a.73.73 0 0 0 .205-.107.219.219 0 0 0 .08-.169zM130.77 143.349c.012-.356.077-.679.196-.969.118-.296.29-.548.515-.755.225-.214.501-.377.827-.489a3.414 3.414 0 0 1 1.155-.178c.516 0 .939.068 1.271.204.338.131.604.291.8.48.201.184.341.377.418.578.083.196.13.362.142.498a.205.205 0 0 1-.071.178.252.252 0 0 1-.169.062h-.72a.268.268 0 0 1-.16-.045.434.434 0 0 1-.08-.106 1.562 1.562 0 0 0-.098-.151.84.84 0 0 0-.24-.249 1.426 1.426 0 0 0-.426-.231 1.81 1.81 0 0 0-.667-.107c-.444 0-.8.122-1.066.364-.267.237-.409.557-.427.96a13.768 13.768 0 0 0 0 1.449c.018.492.16.85.427 1.076.266.219.622.328 1.066.328.219 0 .421-.023.604-.071.184-.047.341-.124.472-.231.136-.106.24-.246.311-.418.077-.177.115-.394.115-.648v-.071h-1.084a.23.23 0 0 1-.169-.072.23.23 0 0 1-.071-.168v-.631a.23.23 0 0 1 .071-.169.228.228 0 0 1 .169-.071h2.044c.065 0 .122.023.169.071a.23.23 0 0 1 .071.169v.977c0 .356-.056.685-.169.987a2.107 2.107 0 0 1-.506.773 2.454 2.454 0 0 1-.845.507 3.585 3.585 0 0 1-1.182.177c-.45 0-.841-.059-1.173-.177a2.269 2.269 0 0 1-.827-.498 2.177 2.177 0 0 1-.506-.764 3.102 3.102 0 0 1-.187-.987 41.84 41.84 0 0 1-.018-.373v-.836l.018-.373zm6.435.435a1.3 1.3 0 0 1 .16-.4c.089-.142.21-.275.364-.399.16-.125.353-.226.578-.303.231-.083.498-.124.8-.124.302 0 .575.041.818.124.243.077.45.193.622.347.178.154.314.35.409.587.095.231.142.497.142.799v2.614a.23.23 0 0 1-.071.168.23.23 0 0 1-.169.072h-.675a.228.228 0 0 1-.169-.072.226.226 0 0 1-.071-.168v-.294c-.125.172-.306.32-.543.445-.231.118-.527.177-.888.177-.255 0-.483-.032-.685-.097a1.452 1.452 0 0 1-.506-.294 1.341 1.341 0 0 1-.32-.435 1.455 1.455 0 0 1-.107-.56c0-.409.145-.729.435-.96.291-.231.679-.388 1.165-.471l1.449-.249c0-.243-.08-.415-.24-.515a1.097 1.097 0 0 0-.596-.152.782.782 0 0 0-.347.063 1.022 1.022 0 0 0-.24.169.477.477 0 0 1-.151.097.353.353 0 0 1-.142.027h-.826a.229.229 0 0 1-.152-.053c-.041-.036-.056-.083-.044-.143zm1.484 2.507c.202 0 .38-.027.534-.08.16-.059.293-.136.4-.231a.973.973 0 0 0 .24-.32.887.887 0 0 0 .08-.365v-.088l-1.209.213c-.243.041-.418.104-.525.186a.376.376 0 0 0-.16.32c0 .125.063.217.187.276.13.059.282.089.453.089zm4.749.738a.23.23 0 0 1-.071.168.23.23 0 0 1-.169.072h-.675a.228.228 0 0 1-.169-.072.226.226 0 0 1-.071-.168v-4.142c0-.065.023-.122.071-.169a.227.227 0 0 1 .169-.071h.675c.065 0 .122.023.169.071a.232.232 0 0 1 .071.169v4.142zm-.195-6.071a.23.23 0 0 1 .168.071.23.23 0 0 1 .072.169v.693a.23.23 0 0 1-.072.169.226.226 0 0 1-.168.071h-.765a.23.23 0 0 1-.169-.071.232.232 0 0 1-.071-.169v-.693c0-.065.024-.121.071-.169a.234.234 0 0 1 .169-.071h.765zm5.755 6.071a.226.226 0 0 1-.071.168.228.228 0 0 1-.169.072h-.675a.23.23 0 0 1-.169-.072.23.23 0 0 1-.071-.168v-2.258c0-.356-.083-.64-.249-.853-.166-.214-.421-.32-.764-.32-.314 0-.563.106-.747.32-.178.213-.267.497-.267.853v2.258a.226.226 0 0 1-.071.168.228.228 0 0 1-.169.072h-.675a.23.23 0 0 1-.169-.072.23.23 0 0 1-.071-.168v-4.142c0-.065.024-.122.071-.169a.228.228 0 0 1 .169-.071h.675c.066 0 .122.023.169.071a.228.228 0 0 1 .071.169v.204c.154-.154.335-.281.543-.382.207-.101.453-.151.737-.151.362 0 .664.056.907.169.243.112.438.263.586.453.149.19.252.412.312.667.065.249.097.512.097.791v2.391zm3.699-1.085a.216.216 0 0 0-.063-.16.575.575 0 0 0-.222-.115 3.27 3.27 0 0 0-.409-.107 56.752 56.752 0 0 1-.657-.142 2.735 2.735 0 0 1-.649-.222 1.466 1.466 0 0 1-.418-.311 1.04 1.04 0 0 1-.213-.4 1.887 1.887 0 0 1-.062-.498c0-.178.041-.353.124-.525.083-.171.201-.322.355-.453.16-.136.353-.246.578-.329.225-.083.483-.124.773-.124.291 0 .549.032.774.098.231.065.426.151.586.257.16.107.285.231.374.374a.905.905 0 0 1 .151.417.193.193 0 0 1-.071.169.23.23 0 0 1-.169.071h-.685a.382.382 0 0 1-.204-.044 4.834 4.834 0 0 0-.142-.116.723.723 0 0 0-.214-.106 1.12 1.12 0 0 0-.4-.054c-.177 0-.334.027-.471.08-.136.054-.204.149-.204.285a.32.32 0 0 0 .044.169c.036.041.098.08.187.115.095.036.222.074.382.116.166.035.379.08.64.133.528.113.898.29 1.111.533.219.237.329.534.329.889 0 .178-.044.353-.133.525-.089.166-.22.317-.391.453a2.06 2.06 0 0 1-.623.32 2.725 2.725 0 0 1-.826.115c-.314 0-.593-.035-.836-.106a2.192 2.192 0 0 1-.604-.294 1.344 1.344 0 0 1-.382-.399.925.925 0 0 1-.142-.436.202.202 0 0 1 .062-.169.262.262 0 0 1 .178-.071h.684c.089 0 .154.021.196.062.047.042.097.089.151.142a.819.819 0 0 0 .24.143c.1.041.251.062.453.062.089 0 .181-.006.275-.018.095-.012.181-.03.258-.053a.742.742 0 0 0 .205-.107.22.22 0 0 0 .08-.169zM230.174 143.349c.012-.356.077-.679.196-.969.118-.296.29-.548.515-.755.225-.214.501-.377.827-.489a3.418 3.418 0 0 1 1.155-.178c.516 0 .939.068 1.271.204.338.131.605.291.8.48.202.184.341.377.418.578.083.196.13.362.142.498a.205.205 0 0 1-.071.178.25.25 0 0 1-.169.062h-.72a.268.268 0 0 1-.16-.045.434.434 0 0 1-.08-.106 1.562 1.562 0 0 0-.098-.151.848.848 0 0 0-.239-.249 1.433 1.433 0 0 0-.427-.231 1.81 1.81 0 0 0-.667-.107c-.444 0-.8.122-1.066.364-.267.237-.409.557-.427.96a13.768 13.768 0 0 0 0 1.449c.018.492.16.85.427 1.076.266.219.622.328 1.066.328.22 0 .421-.023.605-.071.183-.047.34-.124.471-.231.136-.106.24-.246.311-.418.077-.177.115-.394.115-.648v-.071h-1.084a.23.23 0 0 1-.169-.072.23.23 0 0 1-.071-.168v-.631a.23.23 0 0 1 .071-.169.23.23 0 0 1 .169-.071h2.044c.065 0 .122.023.169.071a.227.227 0 0 1 .071.169v.977c0 .356-.056.685-.169.987a2.107 2.107 0 0 1-.506.773 2.444 2.444 0 0 1-.845.507 3.577 3.577 0 0 1-1.182.177c-.45 0-.841-.059-1.173-.177a2.269 2.269 0 0 1-.827-.498 2.177 2.177 0 0 1-.506-.764 3.102 3.102 0 0 1-.187-.987 41.84 41.84 0 0 1-.018-.373v-.836l.018-.373zm8.471-.791c.325 0 .619.05.88.151.266.101.494.24.684.418.195.177.349.385.462.622.119.237.187.492.204.764.006.054.009.122.009.205v.497a2.184 2.184 0 0 1-.213.96 1.989 1.989 0 0 1-.462.622c-.19.172-.418.309-.684.409a2.425 2.425 0 0 1-.88.151 2.49 2.49 0 0 1-.889-.151 2.247 2.247 0 0 1-.685-.409 2.058 2.058 0 0 1-.453-.622 2.205 2.205 0 0 1-.204-.764 5.835 5.835 0 0 1-.018-.196v-.497c.006-.083.012-.151.018-.205.017-.272.083-.527.195-.764.119-.237.273-.445.462-.622.196-.178.424-.317.685-.418a2.49 2.49 0 0 1 .889-.151zm1.075 2a1.086 1.086 0 0 0-.133-.454.809.809 0 0 0-.578-.435 1.481 1.481 0 0 0-.729 0 .867.867 0 0 0-.329.142.901.901 0 0 0-.257.293c-.066.119-.107.27-.125.454a4.302 4.302 0 0 0-.018.177v.454c.006.071.012.127.018.169.018.183.059.337.125.462a.931.931 0 0 0 .586.435 1.837 1.837 0 0 0 .729 0 .965.965 0 0 0 .329-.151.83.83 0 0 0 .249-.284c.071-.125.115-.279.133-.462.006-.042.009-.098.009-.169v-.454c0-.071-.003-.13-.009-.177zm2.175-.774a1.3 1.3 0 0 1 .16-.4 1.63 1.63 0 0 1 .365-.399c.16-.125.352-.226.577-.303.231-.083.498-.124.8-.124.302 0 .575.041.818.124.243.077.45.193.622.347.178.154.314.35.409.587.095.231.142.497.142.799v2.614a.23.23 0 0 1-.071.168.23.23 0 0 1-.169.072h-.675a.23.23 0 0 1-.169-.072.226.226 0 0 1-.071-.168v-.294c-.125.172-.305.32-.542.445-.232.118-.528.177-.889.177-.255 0-.483-.032-.685-.097a1.452 1.452 0 0 1-.506-.294 1.341 1.341 0 0 1-.32-.435 1.455 1.455 0 0 1-.107-.56c0-.409.145-.729.436-.96.29-.231.678-.388 1.164-.471l1.449-.249c0-.243-.08-.415-.24-.515a1.097 1.097 0 0 0-.596-.152.777.777 0 0 0-.346.063 1.002 1.002 0 0 0-.24.169.5.5 0 0 1-.151.097.358.358 0 0 1-.143.027h-.826a.224.224 0 0 1-.151-.053c-.042-.036-.057-.083-.045-.143zm1.484 2.507c.202 0 .38-.027.534-.08.16-.059.293-.136.4-.231a.973.973 0 0 0 .24-.32.887.887 0 0 0 .08-.365v-.088l-1.209.213c-.243.041-.418.104-.524.186a.374.374 0 0 0-.16.32c0 .125.062.217.186.276.131.059.282.089.453.089zm4.749.738a.226.226 0 0 1-.071.168.23.23 0 0 1-.169.072h-.675a.23.23 0 0 1-.169-.072.23.23 0 0 1-.071-.168v-5.831c0-.065.024-.121.071-.169a.232.232 0 0 1 .169-.071h.675c.065 0 .122.024.169.071a.23.23 0 0 1 .071.169v5.831zM38.46 88.928c.104 0 .194.038.27.114a.369.369 0 0 1 .114.27v1.01a.369.369 0 0 1-.114.27.369.369 0 0 1-.27.114h-4.537v2.759h4.252a.37.37 0 0 1 .27.113.37.37 0 0 1 .114.27v1.01a.37.37 0 0 1-.113.27.37.37 0 0 1-.27.114h-4.253V98.5a.37.37 0 0 1-.113.27.369.369 0 0 1-.27.114h-1.152a.369.369 0 0 1-.27-.114.37.37 0 0 1-.114-.27v-9.187a.37.37 0 0 1 .113-.27.369.369 0 0 1 .27-.114h6.073zm3.75 9.57a.369.369 0 0 1-.114.271.369.369 0 0 1-.27.114h-1.081a.369.369 0 0 1-.27-.114.37.37 0 0 1-.114-.27v-6.627a.37.37 0 0 1 .114-.27.37.37 0 0 1 .27-.114h1.08a.37.37 0 0 1 .27.114.369.369 0 0 1 .115.27v6.627zm-.313-9.712a.37.37 0 0 1 .27.114.37.37 0 0 1 .114.27v1.11a.369.369 0 0 1-.114.27.37.37 0 0 1-.27.113h-1.223a.37.37 0 0 1-.27-.114.37.37 0 0 1-.114-.27v-1.11a.37.37 0 0 1 .114-.27.37.37 0 0 1 .27-.113h1.223zm9.209 9.713a.37.37 0 0 1-.114.27.369.369 0 0 1-.27.114h-1.08a.369.369 0 0 1-.271-.114.37.37 0 0 1-.114-.27v-3.612c0-.57-.133-1.024-.398-1.365-.265-.342-.673-.512-1.223-.512-.502 0-.9.17-1.195.511-.284.342-.426.797-.426 1.366v3.612a.369.369 0 0 1-.114.27.369.369 0 0 1-.27.114h-1.08a.369.369 0 0 1-.271-.114.37.37 0 0 1-.114-.27v-6.627a.37.37 0 0 1 .114-.27.37.37 0 0 1 .27-.114h1.08a.37.37 0 0 1 .271.114.369.369 0 0 1 .114.27v.327a3.18 3.18 0 0 1 .867-.611c.332-.162.726-.242 1.18-.242.579 0 1.063.09 1.451.27a2.5 2.5 0 0 1 .939.725c.237.304.403.66.498 1.067.104.398.156.82.156 1.265V98.5zm1.893-5.19c.038-.2.123-.413.256-.64.142-.228.336-.442.583-.64.256-.2.564-.36.924-.484.37-.133.796-.2 1.28-.2.483 0 .92.067 1.308.2.389.123.72.308.996.554.284.247.502.56.654.939.152.37.227.796.227 1.28v4.18a.37.37 0 0 1-.113.271.369.369 0 0 1-.27.114h-1.081a.369.369 0 0 1-.27-.114.369.369 0 0 1-.114-.27v-.47c-.2.276-.488.513-.868.712-.37.19-.844.284-1.422.284-.407 0-.773-.052-1.095-.156a2.34 2.34 0 0 1-.81-.47 2.175 2.175 0 0 1-.512-.697 2.32 2.32 0 0 1-.171-.895c0-.655.232-1.167.697-1.536.464-.37 1.085-.621 1.863-.754l2.318-.398c0-.389-.128-.664-.384-.825-.256-.161-.574-.242-.953-.242-.237 0-.422.033-.555.1-.132.066-.26.156-.384.27a.798.798 0 0 1-.241.156.572.572 0 0 1-.228.043h-1.322a.359.359 0 0 1-.242-.085c-.067-.057-.09-.133-.071-.228zm2.375 4.01c.322 0 .606-.043.853-.129.256-.094.47-.218.64-.37.17-.15.298-.322.384-.511.085-.19.128-.384.128-.583v-.142l-1.934.34c-.389.067-.669.167-.84.3a.597.597 0 0 0-.255.511c0 .2.1.347.298.441.209.095.45.142.726.142zm12.689 1.18a.37.37 0 0 1-.114.27.37.37 0 0 1-.27.114h-1.081a.369.369 0 0 1-.27-.114.369.369 0 0 1-.114-.27v-3.612c0-.57-.133-1.024-.398-1.365-.266-.342-.673-.512-1.223-.512-.503 0-.9.17-1.195.511-.284.342-.426.797-.426 1.366v3.612a.37.37 0 0 1-.114.27.369.369 0 0 1-.27.114h-1.081a.369.369 0 0 1-.27-.114.369.369 0 0 1-.114-.27v-6.627c0-.104.038-.194.114-.27a.37.37 0 0 1 .27-.114h1.08a.37.37 0 0 1 .27.114.37.37 0 0 1 .115.27v.327a3.18 3.18 0 0 1 .867-.611c.332-.162.725-.242 1.18-.242.579 0 1.062.09 1.451.27a2.5 2.5 0 0 1 .939.725c.237.304.402.66.497 1.067.105.398.157.82.157 1.265V98.5zm3.386-3.811a3.829 3.829 0 0 0-.029.497c0 .19.01.356.029.498.028.294.094.545.199.754.104.208.232.379.384.512.16.123.336.218.526.284.19.057.384.085.583.085.237 0 .436-.018.597-.056.161-.038.299-.09.413-.157.113-.076.208-.156.284-.242.085-.094.166-.199.242-.312.057-.086.123-.171.199-.256a.35.35 0 0 1 .27-.128h1.08c.105 0 .195.037.271.113a.31.31 0 0 1 .114.27c-.01.2-.08.441-.214.726-.132.284-.34.56-.625.825-.275.256-.63.474-1.067.654-.436.18-.957.27-1.564.27-.522 0-.99-.085-1.408-.256a3.761 3.761 0 0 1-1.095-.711 3.595 3.595 0 0 1-.725-1.038 4.045 4.045 0 0 1-.313-1.252 5.172 5.172 0 0 1-.028-.568c0-.209.009-.403.028-.584.028-.436.133-.853.313-1.25.18-.4.422-.745.725-1.039a3.25 3.25 0 0 1 1.08-.711c.427-.18.901-.27 1.423-.27.607 0 1.128.09 1.564.27.436.18.792.403 1.067.668.284.256.493.526.625.81.133.285.204.527.214.726a.31.31 0 0 1-.114.27.37.37 0 0 1-.27.114h-1.08a.35.35 0 0 1-.271-.128 2.338 2.338 0 0 1-.2-.256 1.958 1.958 0 0 0-.241-.298 1.01 1.01 0 0 0-.284-.242 1.256 1.256 0 0 0-.413-.17 2.659 2.659 0 0 0-.597-.058c-.2 0-.394.033-.583.1a1.484 1.484 0 0 0-.91.782 2.14 2.14 0 0 0-.2.754zm8.563 3.81a.369.369 0 0 1-.114.271.369.369 0 0 1-.27.114h-1.081a.369.369 0 0 1-.27-.114.369.369 0 0 1-.114-.27v-6.627c0-.104.038-.194.114-.27a.37.37 0 0 1 .27-.114h1.08a.37.37 0 0 1 .27.114.369.369 0 0 1 .115.27v6.627zm-.313-9.712a.37.37 0 0 1 .27.114.37.37 0 0 1 .114.27v1.11a.37.37 0 0 1-.114.27.37.37 0 0 1-.27.113h-1.223a.37.37 0 0 1-.27-.114.369.369 0 0 1-.114-.27v-1.11a.37.37 0 0 1 .114-.27.37.37 0 0 1 .27-.113h1.223zm2.27 4.522c.037-.199.122-.412.255-.64.142-.227.337-.44.583-.64.256-.199.564-.36.925-.483.37-.133.796-.2 1.28-.2.483 0 .92.067 1.308.2.389.123.72.308.995.554.285.247.503.56.654.939.152.37.228.796.228 1.28v4.18a.37.37 0 0 1-.114.271.369.369 0 0 1-.27.114h-1.08a.369.369 0 0 1-.271-.114.37.37 0 0 1-.114-.27v-.47c-.199.276-.488.513-.867.712-.37.19-.844.284-1.422.284a3.55 3.55 0 0 1-1.095-.156 2.339 2.339 0 0 1-.81-.47 2.177 2.177 0 0 1-.513-.697 2.322 2.322 0 0 1-.17-.895c0-.655.232-1.167.696-1.536.465-.37 1.086-.621 1.863-.754l2.318-.398c0-.389-.128-.664-.384-.825-.256-.161-.573-.242-.953-.242-.236 0-.421.033-.554.1-.133.066-.26.156-.384.27a.797.797 0 0 1-.242.156.572.572 0 0 1-.227.043H82.28a.36.36 0 0 1-.242-.085c-.066-.057-.09-.133-.07-.228zm2.374 4.01c.322 0 .607-.042.853-.127.256-.095.47-.219.64-.37.17-.152.299-.323.384-.512.086-.19.128-.384.128-.583v-.142l-1.934.34c-.389.067-.668.167-.839.3a.596.596 0 0 0-.256.511c0 .2.1.347.299.441.208.095.45.142.725.142zm7.598 1.18a.37.37 0 0 1-.114.271.369.369 0 0 1-.27.114h-1.08a.369.369 0 0 1-.27-.114.37.37 0 0 1-.115-.27v-9.33a.37.37 0 0 1 .114-.27.37.37 0 0 1 .27-.113h1.081a.37.37 0 0 1 .27.114.37.37 0 0 1 .114.27v9.329zm9.624-9.57c.152 0 .266.043.341.128a.947.947 0 0 1 .2.356l3.484 8.987a.369.369 0 0 1-.1.37.37.37 0 0 1-.27.114h-1.024c-.19 0-.322-.038-.398-.114a.809.809 0 0 1-.157-.242l-.611-1.578h-4.494l-.611 1.578a.798.798 0 0 1-.157.242c-.076.076-.208.114-.398.114h-1.024a.369.369 0 0 1-.27-.114.369.369 0 0 1-.1-.37l3.484-8.987a.947.947 0 0 1 .2-.356c.075-.085.19-.128.341-.128h1.564zm.782 6.243-1.564-4.053-1.564 4.053h3.128zm8.449 1.593a.344.344 0 0 0-.1-.256c-.066-.066-.184-.128-.355-.185a5.216 5.216 0 0 0-.654-.17 77.282 77.282 0 0 1-1.053-.228 4.4 4.4 0 0 1-1.038-.356 2.323 2.323 0 0 1-.668-.497 1.671 1.671 0 0 1-.341-.64 3.027 3.027 0 0 1-.1-.797c0-.284.066-.564.199-.839s.322-.516.569-.725c.256-.218.564-.393.924-.526.361-.133.773-.2 1.238-.2.464 0 .876.053 1.237.157.369.105.682.242.938.413.256.17.455.37.598.597.142.218.222.44.241.668a.308.308 0 0 1-.113.27.37.37 0 0 1-.271.114h-1.095a.621.621 0 0 1-.327-.07 6.15 6.15 0 0 0-.227-.186 1.15 1.15 0 0 0-.342-.17c-.142-.057-.355-.086-.639-.086-.285 0-.536.043-.754.128-.218.086-.327.237-.327.455 0 .105.023.195.071.27a.77.77 0 0 0 .298.185c.152.057.356.119.612.185.265.057.607.128 1.024.214.844.18 1.436.464 1.777.853.351.379.527.853.527 1.422 0 .284-.071.564-.214.839-.142.265-.35.507-.625.725-.266.209-.598.38-.996.512a4.366 4.366 0 0 1-1.322.185 4.77 4.77 0 0 1-1.337-.17 3.53 3.53 0 0 1-.967-.47 2.166 2.166 0 0 1-.612-.64 1.468 1.468 0 0 1-.227-.697.325.325 0 0 1 .099-.27.42.42 0 0 1 .285-.114h1.095c.142 0 .246.034.313.1.075.066.156.142.241.227.095.086.223.162.384.228.162.066.403.1.726.1.142 0 .289-.01.44-.029.152-.019.29-.047.413-.085.133-.048.242-.105.327-.17a.351.351 0 0 0 .128-.271zm7.388 0a.348.348 0 0 0-.099-.256c-.067-.066-.185-.128-.356-.185a5.216 5.216 0 0 0-.654-.17 74.433 74.433 0 0 1-1.052-.228 4.393 4.393 0 0 1-1.039-.356 2.337 2.337 0 0 1-.668-.497 1.671 1.671 0 0 1-.341-.64 3.027 3.027 0 0 1-.1-.797c0-.284.067-.564.199-.839.133-.275.323-.516.569-.725.256-.218.564-.393.925-.526.36-.133.772-.2 1.237-.2.464 0 .877.053 1.237.157.37.105.683.242.939.413.255.17.455.37.597.597.142.218.223.44.242.668a.312.312 0 0 1-.114.27.37.37 0 0 1-.27.114h-1.095a.616.616 0 0 1-.327-.07 7.237 7.237 0 0 0-.228-.186 1.143 1.143 0 0 0-.341-.17c-.143-.057-.356-.086-.64-.086-.285 0-.536.043-.754.128-.218.086-.327.237-.327.455 0 .105.024.195.071.27a.767.767 0 0 0 .299.185c.151.057.355.119.611.185.266.057.607.128 1.024.214.844.18 1.436.464 1.778.853.35.379.526.853.526 1.422 0 .284-.071.564-.213.839a2.359 2.359 0 0 1-.626.725c-.266.209-.597.38-.996.512a4.362 4.362 0 0 1-1.322.185 4.77 4.77 0 0 1-1.337-.17 3.545 3.545 0 0 1-.967-.47 2.162 2.162 0 0 1-.611-.64 1.46 1.46 0 0 1-.228-.697.326.326 0 0 1 .1-.27.417.417 0 0 1 .284-.114h1.095c.142 0 .246.034.313.1.076.066.156.142.242.227.094.086.222.162.384.228.161.066.402.1.725.1.142 0 .289-.01.441-.029a2.43 2.43 0 0 0 .412-.085c.133-.048.242-.105.327-.17a.351.351 0 0 0 .128-.271zm5.213 1.735a.369.369 0 0 1-.114.27.37.37 0 0 1-.27.114h-1.081a.368.368 0 0 1-.27-.114.369.369 0 0 1-.114-.27v-6.627c0-.104.038-.194.114-.27a.368.368 0 0 1 .27-.114h1.081a.37.37 0 0 1 .27.114.369.369 0 0 1 .114.27v6.627zm-.313-9.713a.37.37 0 0 1 .27.114.369.369 0 0 1 .114.27v1.11a.369.369 0 0 1-.114.27.37.37 0 0 1-.27.113h-1.223a.366.366 0 0 1-.27-.114.369.369 0 0 1-.114-.27v-1.11c0-.103.038-.193.114-.27a.366.366 0 0 1 .27-.113h1.223zm6.294 7.978a.348.348 0 0 0-.1-.256c-.066-.066-.185-.128-.356-.185a5.216 5.216 0 0 0-.654-.17 77.622 77.622 0 0 1-1.052-.228 4.4 4.4 0 0 1-1.038-.356 2.328 2.328 0 0 1-.669-.497 1.685 1.685 0 0 1-.341-.64 3.07 3.07 0 0 1-.099-.797c0-.284.066-.564.199-.839.132-.275.322-.516.569-.725.256-.218.564-.393.924-.526.36-.133.773-.2 1.237-.2.465 0 .877.053 1.237.157.37.105.683.242.939.413.256.17.455.37.597.597.142.218.223.44.242.668a.309.309 0 0 1-.114.27.37.37 0 0 1-.27.114h-1.095a.621.621 0 0 1-.327-.07 5.488 5.488 0 0 0-.228-.186 1.143 1.143 0 0 0-.341-.17c-.142-.057-.355-.086-.64-.086-.284 0-.536.043-.754.128-.218.086-.327.237-.327.455 0 .105.024.195.071.27a.775.775 0 0 0 .299.185c.152.057.356.119.612.185.265.057.606.128 1.023.214.844.18 1.437.464 1.778.853.351.379.526.853.526 1.422 0 .284-.071.564-.213.839a2.345 2.345 0 0 1-.626.725c-.265.209-.597.38-.995.512-.389.123-.83.185-1.323.185-.502 0-.948-.057-1.337-.17a3.545 3.545 0 0 1-.967-.47 2.162 2.162 0 0 1-.611-.64 1.482 1.482 0 0 1-.228-.697.326.326 0 0 1 .1-.27.417.417 0 0 1 .284-.114h1.095c.143 0 .247.034.313.1.076.066.157.142.242.227.095.086.223.162.384.228s.403.1.725.1c.142 0 .289-.01.441-.029a2.41 2.41 0 0 0 .412-.085c.133-.048.242-.105.328-.17a.351.351 0 0 0 .128-.271zm5.852-.555c0 .294.076.531.227.711.162.171.455.256.882.256h.868a.37.37 0 0 1 .27.114.369.369 0 0 1 .114.27v.939a.369.369 0 0 1-.114.27.37.37 0 0 1-.27.114h-1.053c-.891 0-1.578-.213-2.062-.64-.474-.436-.711-1.1-.711-1.991v-3.057h-.938a.37.37 0 0 1-.271-.114.372.372 0 0 1-.113-.27v-.94c0-.103.038-.193.113-.27a.37.37 0 0 1 .271-.113h.938V89.17c0-.104.038-.194.114-.27a.37.37 0 0 1 .27-.114h1.081a.37.37 0 0 1 .27.114.369.369 0 0 1 .114.27v2.318h1.834a.37.37 0 0 1 .271.114.372.372 0 0 1 .113.27v.939a.372.372 0 0 1-.113.27.37.37 0 0 1-.271.114h-1.834v3.014zm3.761-2.9c.038-.2.123-.413.256-.64.142-.228.336-.442.583-.64.256-.2.564-.36.924-.484.37-.133.796-.2 1.28-.2.483 0 .92.067 1.308.2.389.123.721.308.996.554.284.247.502.56.654.939.152.37.227.796.227 1.28v4.18a.372.372 0 0 1-.113.271.37.37 0 0 1-.271.114h-1.08a.37.37 0 0 1-.271-.114.372.372 0 0 1-.113-.27v-.47c-.199.276-.489.513-.868.712-.37.19-.844.284-1.422.284-.408 0-.773-.052-1.095-.156a2.34 2.34 0 0 1-.81-.47 2.159 2.159 0 0 1-.512-.697 2.316 2.316 0 0 1-.171-.895c0-.655.232-1.167.697-1.536.464-.37 1.085-.621 1.863-.754l2.318-.398c0-.389-.128-.664-.384-.825-.256-.161-.574-.242-.953-.242-.237 0-.422.033-.555.1a1.7 1.7 0 0 0-.384.27.802.802 0 0 1-.241.156.578.578 0 0 1-.228.043h-1.322a.359.359 0 0 1-.242-.085c-.067-.057-.09-.133-.071-.228zm2.375 4.01c.322 0 .606-.043.853-.129.256-.094.469-.218.64-.37.17-.15.298-.322.384-.511.085-.19.128-.384.128-.583v-.142l-1.934.34c-.389.067-.669.167-.839.3a.596.596 0 0 0-.256.511c0 .2.099.347.298.441.209.095.451.142.726.142zm12.689 1.18a.369.369 0 0 1-.114.27.37.37 0 0 1-.27.114h-1.081a.37.37 0 0 1-.27-.114.369.369 0 0 1-.114-.27v-3.612c0-.57-.133-1.024-.398-1.365-.266-.342-.673-.512-1.223-.512-.503 0-.901.17-1.195.511-.284.342-.426.797-.426 1.366v3.612a.369.369 0 0 1-.114.27.37.37 0 0 1-.27.114h-1.081a.37.37 0 0 1-.27-.114.369.369 0 0 1-.114-.27v-6.627c0-.104.038-.194.114-.27a.37.37 0 0 1 .27-.114h1.081a.37.37 0 0 1 .27.114.369.369 0 0 1 .114.27v.327c.246-.246.535-.45.867-.611.332-.162.725-.242 1.18-.242.579 0 1.062.09 1.451.27.389.18.702.422.939.725.237.304.402.66.497 1.067.105.398.157.82.157 1.265V98.5zm3.386-3.811a3.802 3.802 0 0 0-.029.497c0 .19.01.356.029.498.028.294.094.545.199.754.104.208.232.379.384.512.161.123.336.218.526.284.189.057.384.085.583.085.237 0 .436-.018.597-.056.161-.038.299-.09.413-.157.113-.076.208-.156.284-.242.085-.094.166-.199.242-.312.057-.086.123-.171.199-.256a.35.35 0 0 1 .27-.128h1.081a.37.37 0 0 1 .27.113.312.312 0 0 1 .114.27c-.01.2-.081.441-.214.726a2.71 2.71 0 0 1-.625.825c-.275.256-.631.474-1.067.654-.436.18-.957.27-1.564.27-.522 0-.991-.085-1.408-.256a3.764 3.764 0 0 1-1.095-.711 3.598 3.598 0 0 1-.725-1.038 4.04 4.04 0 0 1-.313-1.252 5.57 5.57 0 0 1 0-1.152 3.57 3.57 0 0 1 .313-1.25c.18-.4.422-.745.725-1.039.303-.303.664-.54 1.081-.711.426-.18.9-.27 1.422-.27.607 0 1.128.09 1.564.27.436.18.792.403 1.067.668.284.256.493.526.625.81.133.285.204.527.214.726a.312.312 0 0 1-.114.27.37.37 0 0 1-.27.114h-1.081a.35.35 0 0 1-.27-.128 2.337 2.337 0 0 1-.199-.256 1.983 1.983 0 0 0-.242-.298 1.023 1.023 0 0 0-.284-.242 1.264 1.264 0 0 0-.413-.17 2.655 2.655 0 0 0-.597-.058 1.75 1.75 0 0 0-.583.1 1.477 1.477 0 0 0-.91.782c-.105.208-.171.46-.199.754zm6.344.497c0-.53.081-1.028.242-1.493.161-.474.393-.881.697-1.223.303-.35.668-.625 1.095-.825.436-.199.919-.298 1.45-.298.531 0 1.01.1 1.437.298a3.295 3.295 0 0 1 1.806 1.934c.17.436.256.896.256 1.38v.64a.369.369 0 0 1-.114.27.37.37 0 0 1-.27.114h-4.75c0 .218.043.412.128.583.095.161.218.298.37.412.151.114.327.2.526.256.199.057.403.085.611.085.304 0 .55-.028.74-.085.189-.066.346-.147.469-.242.104-.075.19-.128.256-.156a.701.701 0 0 1 .27-.043h1.138a.37.37 0 0 1 .27.114.312.312 0 0 1 .114.27c-.01.133-.085.304-.228.512-.132.209-.336.413-.611.612-.275.199-.616.37-1.024.512-.398.142-.863.213-1.394.213a3.76 3.76 0 0 1-1.45-.27 3.16 3.16 0 0 1-1.095-.796 3.534 3.534 0 0 1-.697-1.21 4.839 4.839 0 0 1-.242-1.564zm3.484-2.133c-.275 0-.512.043-.711.128-.189.076-.35.18-.483.313a1.376 1.376 0 0 0-.313.427 1.66 1.66 0 0 0-.128.44h3.214a2.013 2.013 0 0 0-.114-.44.99.99 0 0 0-.256-.427 1.137 1.137 0 0 0-.469-.313c-.19-.085-.436-.128-.74-.128zM36.312 190.004l-1.032 3.588a.964.964 0 0 1-.156.3c-.056.072-.144.108-.264.108h-.972a.39.39 0 0 1-.288-.108.688.688 0 0 1-.132-.3l-1.536-7.572a.516.516 0 0 1-.012-.096c0-.088.032-.164.096-.228a.311.311 0 0 1 .228-.096h.888c.08 0 .156.024.228.072.072.048.12.132.144.252l1.008 5.088.888-3.204a.89.89 0 0 1 .108-.216c.064-.088.168-.132.312-.132h.984c.144 0 .244.044.3.132.064.088.104.16.12.216l.888 3.204 1.008-5.088c.024-.12.072-.204.144-.252a.404.404 0 0 1 .228-.072h.888c.088 0 .164.032.228.096s.096.14.096.228a.516.516 0 0 1-.012.096l-1.536 7.572a.62.62 0 0 1-.144.3c-.064.072-.156.108-.276.108h-.972c-.12 0-.212-.036-.276-.108a1.164 1.164 0 0 1-.144-.3l-1.032-3.588zm11.493 3.672a.311.311 0 0 1-.096.228.311.311 0 0 1-.228.096h-.912a.311.311 0 0 1-.228-.096.311.311 0 0 1-.096-.228v-3.048c0-.48-.112-.864-.336-1.152-.224-.288-.568-.432-1.032-.432-.424 0-.76.144-1.008.432-.24.288-.36.672-.36 1.152v3.048a.311.311 0 0 1-.096.228.311.311 0 0 1-.228.096h-.912a.311.311 0 0 1-.228-.096.311.311 0 0 1-.096-.228v-7.872c0-.088.032-.164.096-.228a.311.311 0 0 1 .228-.096h.912c.088 0 .164.032.228.096s.096.14.096.228v2.556c.208-.208.452-.38.732-.516.28-.136.612-.204.996-.204.488 0 .896.076 1.224.228.328.152.592.356.792.612.2.256.34.556.42.9a4.2 4.2 0 0 1 .132 1.068v3.228zm3.157 0a.311.311 0 0 1-.096.228.311.311 0 0 1-.228.096h-.912a.311.311 0 0 1-.228-.096.311.311 0 0 1-.096-.228v-5.592c0-.088.032-.164.096-.228a.311.311 0 0 1 .228-.096h.912c.088 0 .164.032.228.096s.096.14.096.228v5.592zm-.264-8.196c.088 0 .164.032.228.096s.096.14.096.228v.936a.311.311 0 0 1-.096.228.311.311 0 0 1-.228.096h-1.032a.311.311 0 0 1-.228-.096.311.311 0 0 1-.096-.228v-.936c0-.088.032-.164.096-.228a.311.311 0 0 1 .228-.096h1.032zm3.175 4.98a3.22 3.22 0 0 0-.024.42c0 .16.008.3.024.42.024.248.08.46.168.636.088.176.196.32.324.432.136.104.284.184.444.24.16.048.324.072.492.072.2 0 .368-.016.504-.048s.252-.076.348-.132c.096-.064.176-.132.24-.204.072-.08.14-.168.204-.264.048-.072.104-.144.168-.216a.296.296 0 0 1 .228-.108h.912c.088 0 .164.032.228.096.072.064.104.14.096.228-.008.168-.068.372-.18.612-.112.24-.288.472-.528.696a2.97 2.97 0 0 1-.9.552c-.368.152-.808.228-1.32.228-.44 0-.836-.072-1.188-.216a3.173 3.173 0 0 1-.924-.6 3.033 3.033 0 0 1-.612-.876 3.414 3.414 0 0 1-.264-1.056 4.713 4.713 0 0 1 0-.972c.024-.368.112-.72.264-1.056.152-.336.356-.628.612-.876.256-.256.56-.456.912-.6.36-.152.76-.228 1.2-.228.512 0 .952.076 1.32.228.368.152.668.34.9.564.24.216.416.444.528.684.112.24.172.444.18.612a.261.261 0 0 1-.096.228.311.311 0 0 1-.228.096h-.912a.296.296 0 0 1-.228-.108 1.977 1.977 0 0 1-.168-.216 1.646 1.646 0 0 0-.204-.252.855.855 0 0 0-.24-.204 1.06 1.06 0 0 0-.348-.144 2.242 2.242 0 0 0-.504-.048 1.48 1.48 0 0 0-.492.084 1.251 1.251 0 0 0-.768.66 1.806 1.806 0 0 0-.168.636zm11.522 3.216a.311.311 0 0 1-.096.228.311.311 0 0 1-.228.096h-.912a.311.311 0 0 1-.228-.096.311.311 0 0 1-.096-.228v-3.048c0-.48-.112-.864-.336-1.152-.224-.288-.568-.432-1.032-.432-.424 0-.76.144-1.008.432-.24.288-.36.672-.36 1.152v3.048a.311.311 0 0 1-.096.228.311.311 0 0 1-.228.096h-.912a.311.311 0 0 1-.228-.096.311.311 0 0 1-.096-.228v-7.872c0-.088.032-.164.096-.228a.311.311 0 0 1 .228-.096h.912c.088 0 .164.032.228.096s.096.14.096.228v2.556c.208-.208.452-.38.732-.516.28-.136.612-.204.996-.204.488 0 .896.076 1.224.228.328.152.592.356.792.612.2.256.34.556.42.9a4.2 4.2 0 0 1 .132 1.068v3.228zm4.148-4.944a4.3 4.3 0 0 1 .251-1.26c.153-.4.373-.744.66-1.032a2.997 2.997 0 0 1 1.08-.696c.432-.176.944-.264 1.536-.264.585 0 1.093.084 1.525.252.431.168.791.4 1.08.696.288.296.508.64.66 1.032.152.392.24.816.264 1.272.007.152.011.32.011.504a13.276 13.276 0 0 1 0 1.14c0 .184-.004.352-.011.504a4.19 4.19 0 0 1-.264 1.272c-.144.392-.36.736-.648 1.032a3.064 3.064 0 0 1-1.093.684c-.431.168-.94.252-1.523.252-.593 0-1.105-.084-1.537-.252a3.083 3.083 0 0 1-1.08-.684 3.04 3.04 0 0 1-.66-1.032 4.435 4.435 0 0 1-.251-1.272 55.63 55.63 0 0 1-.025-.504v-1.14c.008-.184.016-.352.025-.504zm5.435.06c-.031-.576-.22-1.02-.563-1.332-.337-.32-.785-.48-1.345-.48-.56 0-1.011.16-1.355.48-.337.312-.52.756-.553 1.332-.016.304-.024.644-.024 1.02 0 .368.008.704.024 1.008.032.576.216 1.02.552 1.332.344.312.796.468 1.356.468s1.009-.156 1.345-.468c.343-.312.531-.756.563-1.332.017-.304.025-.64.025-1.008 0-.376-.008-.716-.025-1.02zm5.212-1.032h1.668c.088 0 .164.032.228.096s.096.14.096.228v.792a.311.311 0 0 1-.096.228.311.311 0 0 1-.228.096H80.19v4.476a.311.311 0 0 1-.096.228.311.311 0 0 1-.228.096h-.912a.311.311 0 0 1-.228-.096.311.311 0 0 1-.096-.228V189.2h-.792a.311.311 0 0 1-.228-.096.311.311 0 0 1-.096-.228v-.792c0-.088.032-.164.096-.228a.311.311 0 0 1 .228-.096h.792v-.54c0-.384.056-.708.168-.972.112-.272.272-.492.48-.66a1.9 1.9 0 0 1 .744-.36c.296-.072.624-.108.984-.108h.972c.088 0 .164.032.228.096s.096.14.096.228v.792a.311.311 0 0 1-.096.228.311.311 0 0 1-.228.096h-.852c-.304 0-.536.056-.696.168-.16.104-.24.308-.24.612v.42zm10.877-2.16c.088 0 .164.032.228.096s.096.14.096.228v.852a.311.311 0 0 1-.096.228.311.311 0 0 1-.228.096h-2.16v6.576a.311.311 0 0 1-.096.228.311.311 0 0 1-.228.096h-.972a.311.311 0 0 1-.228-.096.311.311 0 0 1-.096-.228V187.1h-2.16a.311.311 0 0 1-.228-.096.311.311 0 0 1-.096-.228v-.852c0-.088.032-.164.096-.228a.311.311 0 0 1 .228-.096h5.94zm7.058 8.076a.311.311 0 0 1-.096.228.311.311 0 0 1-.228.096h-.912a.311.311 0 0 1-.228-.096.311.311 0 0 1-.096-.228v-3.048c0-.48-.112-.864-.336-1.152-.224-.288-.568-.432-1.032-.432-.424 0-.76.144-1.008.432-.24.288-.36.672-.36 1.152v3.048a.311.311 0 0 1-.096.228.311.311 0 0 1-.228.096h-.912a.311.311 0 0 1-.228-.096.311.311 0 0 1-.096-.228v-7.872c0-.088.032-.164.096-.228a.311.311 0 0 1 .228-.096h.912c.088 0 .164.032.228.096s.096.14.096.228v2.556c.208-.208.452-.38.732-.516.28-.136.612-.204.996-.204.488 0 .896.076 1.224.228.328.152.592.356.792.612.2.256.34.556.42.9a4.2 4.2 0 0 1 .132 1.068v3.228zm1.285-2.796c0-.448.069-.868.205-1.26.136-.4.332-.744.588-1.032.256-.296.564-.528.924-.696a2.913 2.913 0 0 1 1.224-.252c.448 0 .852.084 1.212.252a2.777 2.777 0 0 1 1.524 1.632c.144.368.216.756.216 1.164v.54a.311.311 0 0 1-.096.228.311.311 0 0 1-.228.096h-4.008c0 .184.036.348.108.492.08.136.184.252.312.348.128.096.276.168.444.216.168.048.34.072.516.072.256 0 .464-.024.624-.072a1.41 1.41 0 0 0 .396-.204c.088-.064.16-.108.216-.132a.59.59 0 0 1 .228-.036h.96c.088 0 .164.032.228.096.072.064.104.14.096.228-.008.112-.072.256-.192.432a1.965 1.965 0 0 1-.516.516 3.494 3.494 0 0 1-2.04.612c-.448 0-.856-.076-1.224-.228a2.673 2.673 0 0 1-.924-.672 2.985 2.985 0 0 1-.588-1.02c-.136-.4-.204-.84-.204-1.32zm2.941-1.8c-.232 0-.432.036-.6.108-.16.064-.296.152-.408.264-.112.104-.2.224-.264.36a1.387 1.387 0 0 0-.108.372h2.712a1.701 1.701 0 0 0-.096-.372.837.837 0 0 0-.216-.36.958.958 0 0 0-.396-.264c-.16-.072-.368-.108-.624-.108zm12.549-3.48c.088 0 .164.032.228.096s.096.14.096.228v.852a.311.311 0 0 1-.096.228.311.311 0 0 1-.228.096h-3.828v2.328h3.588c.088 0 .164.032.228.096s.096.14.096.228v.852a.311.311 0 0 1-.096.228.311.311 0 0 1-.228.096h-3.588v2.748a.311.311 0 0 1-.096.228.311.311 0 0 1-.228.096h-.972a.311.311 0 0 1-.228-.096.311.311 0 0 1-.096-.228v-7.752c0-.088.032-.164.096-.228a.311.311 0 0 1 .228-.096h5.124zm4.235 2.04c.44 0 .836.068 1.188.204.36.136.668.324.924.564.264.24.472.52.624.84.16.32.252.664.276 1.032.008.072.012.164.012.276v.672a2.988 2.988 0 0 1-.288 1.296c-.152.32-.36.6-.624.84a2.868 2.868 0 0 1-.924.552 3.275 3.275 0 0 1-1.188.204c-.44 0-.84-.068-1.2-.204a3.05 3.05 0 0 1-.924-.552 2.77 2.77 0 0 1-.612-.84 2.988 2.988 0 0 1-.276-1.032 8.02 8.02 0 0 1-.024-.264v-.672c.008-.112.016-.204.024-.276.024-.368.112-.712.264-1.032.16-.32.368-.6.624-.84.264-.24.572-.428.924-.564.36-.136.76-.204 1.2-.204zm1.452 2.7a1.454 1.454 0 0 0-.18-.612 1.095 1.095 0 0 0-.78-.588 2.02 2.02 0 0 0-.984 0 1.155 1.155 0 0 0-.792.588c-.088.16-.144.364-.168.612a6.031 6.031 0 0 0-.024.24v.612c.008.096.016.172.024.228.024.248.08.456.168.624a1.245 1.245 0 0 0 .792.588 2.503 2.503 0 0 0 .984 0c.16-.04.308-.108.444-.204.136-.096.248-.224.336-.384a1.55 1.55 0 0 0 .18-.624c.008-.056.012-.132.012-.228v-.612a1.99 1.99 0 0 0-.012-.24zm4.496 3.336a.311.311 0 0 1-.096.228.311.311 0 0 1-.228.096h-.912a.311.311 0 0 1-.228-.096.311.311 0 0 1-.096-.228v-7.872c0-.088.032-.164.096-.228a.311.311 0 0 1 .228-.096h.912c.088 0 .164.032.228.096s.096.14.096.228v7.872zm3.211 0a.311.311 0 0 1-.096.228.311.311 0 0 1-.228.096h-.912a.311.311 0 0 1-.228-.096.311.311 0 0 1-.096-.228v-7.872c0-.088.032-.164.096-.228a.311.311 0 0 1 .228-.096h.912c.088 0 .164.032.228.096s.096.14.096.228v7.872zm4.399-6.036c.44 0 .836.068 1.188.204.36.136.668.324.924.564.264.24.472.52.624.84.16.32.252.664.276 1.032.008.072.012.164.012.276v.672a2.988 2.988 0 0 1-.288 1.296c-.152.32-.36.6-.624.84a2.868 2.868 0 0 1-.924.552 3.275 3.275 0 0 1-1.188.204c-.44 0-.84-.068-1.2-.204a3.05 3.05 0 0 1-.924-.552 2.77 2.77 0 0 1-.612-.84 2.988 2.988 0 0 1-.276-1.032 8.02 8.02 0 0 1-.024-.264v-.672c.008-.112.016-.204.024-.276.024-.368.112-.712.264-1.032.16-.32.368-.6.624-.84.264-.24.572-.428.924-.564.36-.136.76-.204 1.2-.204zm1.452 2.7a1.454 1.454 0 0 0-.18-.612 1.095 1.095 0 0 0-.78-.588 2.02 2.02 0 0 0-.984 0 1.155 1.155 0 0 0-.792.588c-.088.16-.144.364-.168.612a6.031 6.031 0 0 0-.024.24v.612c.008.096.016.172.024.228.024.248.08.456.168.624a1.245 1.245 0 0 0 .792.588 2.503 2.503 0 0 0 .984 0c.16-.04.308-.108.444-.204.136-.096.248-.224.336-.384a1.55 1.55 0 0 0 .18-.624c.008-.056.012-.132.012-.228v-.612a1.99 1.99 0 0 0-.012-.24zm8.857 1.14 1.08-3.432c.024-.064.056-.128.096-.192.048-.064.128-.096.24-.096h.912c.088 0 .164.032.228.096a.311.311 0 0 1 .084.312l-1.812 5.532a.716.716 0 0 1-.108.204c-.048.064-.128.096-.24.096h-.912c-.112 0-.192-.032-.24-.096a1.644 1.644 0 0 1-.108-.204l-1.164-3.204-1.164 3.204a1.05 1.05 0 0 1-.12.204c-.04.064-.116.096-.228.096h-.912c-.112 0-.192-.032-.24-.096a.716.716 0 0 1-.108-.204l-1.812-5.532a.311.311 0 0 1 .084-.312.311.311 0 0 1 .228-.096h.912c.112 0 .188.032.228.096a.776.776 0 0 1 .108.192l1.08 3.432 1.152-3.432a.469.469 0 0 1 .108-.192.311.311 0 0 1 .228-.096h.912c.088 0 .16.032.216.096a.425.425 0 0 1 .12.192l1.152 3.432zm5.425 2.196a.311.311 0 0 1-.096.228.311.311 0 0 1-.228.096h-.912a.311.311 0 0 1-.228-.096.311.311 0 0 1-.096-.228v-5.592c0-.088.032-.164.096-.228a.311.311 0 0 1 .228-.096h.912c.088 0 .164.032.228.096s.096.14.096.228v5.592zm-.264-8.196c.088 0 .164.032.228.096s.096.14.096.228v.936a.311.311 0 0 1-.096.228.311.311 0 0 1-.228.096h-1.032a.311.311 0 0 1-.228-.096.311.311 0 0 1-.096-.228v-.936c0-.088.032-.164.096-.228a.311.311 0 0 1 .228-.096h1.032zm7.771 8.196a.311.311 0 0 1-.096.228.311.311 0 0 1-.228.096h-.912a.311.311 0 0 1-.228-.096.311.311 0 0 1-.096-.228v-3.048c0-.48-.112-.864-.336-1.152-.224-.288-.568-.432-1.032-.432-.424 0-.76.144-1.008.432-.24.288-.36.672-.36 1.152v3.048a.311.311 0 0 1-.096.228.311.311 0 0 1-.228.096h-.912a.311.311 0 0 1-.228-.096.311.311 0 0 1-.096-.228v-5.592c0-.088.032-.164.096-.228a.311.311 0 0 1 .228-.096h.912c.088 0 .164.032.228.096s.096.14.096.228v.276c.208-.208.452-.38.732-.516.28-.136.612-.204.996-.204.488 0 .896.076 1.224.228.328.152.592.356.792.612.2.256.34.556.42.9a4.2 4.2 0 0 1 .132 1.068v3.228zm4.321 1.524c.168 0 .34-.028.516-.084.176-.048.336-.128.48-.24a1.24 1.24 0 0 0 .348-.432 1.19 1.19 0 0 0 .144-.6v-.444a2.507 2.507 0 0 1-.252.24c-.104.08-.232.156-.384.228a2.42 2.42 0 0 1-.516.18 2.733 2.733 0 0 1-.66.072c-.4 0-.764-.076-1.092-.228a2.788 2.788 0 0 1-.828-.624 3.285 3.285 0 0 1-.54-.9c-.128-.344-.2-.7-.216-1.068a6.408 6.408 0 0 1-.012-.42c0-.16.004-.3.012-.42.016-.368.088-.72.216-1.056.136-.344.316-.644.54-.9.232-.264.508-.472.828-.624.328-.16.692-.24 1.092-.24.248 0 .468.024.66.072.2.048.372.108.516.18.152.072.28.152.384.24.104.08.188.156.252.228v-.276c0-.088.032-.164.096-.228a.311.311 0 0 1 .228-.096h.912c.088 0 .164.032.228.096s.096.14.096.228v5.628c0 .968-.272 1.696-.816 2.184-.536.496-1.28.744-2.232.744a3.74 3.74 0 0 1-1.14-.168 3.032 3.032 0 0 1-.9-.432 2.226 2.226 0 0 1-.612-.612 1.394 1.394 0 0 1-.252-.696.274.274 0 0 1 .084-.228.353.353 0 0 1 .24-.096h.816c.112 0 .208.036.288.108.08.08.148.152.204.216.104.136.244.248.42.336.184.088.468.132.852.132zm-1.44-4.656a3.145 3.145 0 0 0 0 .672c.048.52.208.896.48 1.128.272.224.604.336.996.336s.72-.116.984-.348c.272-.232.428-.564.468-.996.016-.12.024-.272.024-.456s-.008-.336-.024-.456c-.04-.416-.196-.744-.468-.984-.264-.24-.592-.36-.984-.36s-.724.116-.996.348c-.272.224-.432.596-.48 1.116zm14.144.792c.016-.104.056-.18.12-.228a.366.366 0 0 1 .228-.084h.972c.088 0 .164.032.228.096a.245.245 0 0 1 .096.228 2.979 2.979 0 0 1-.252.984 2.501 2.501 0 0 1-.636.888c-.288.264-.652.48-1.092.648-.44.168-.972.252-1.596.252-.552 0-1.04-.08-1.464-.24a3.237 3.237 0 0 1-1.08-.684 3.195 3.195 0 0 1-.696-1.056 4.435 4.435 0 0 1-.288-1.332c-.016-.304-.024-.64-.024-1.008s.008-.704.024-1.008c.032-.48.128-.924.288-1.332a3.064 3.064 0 0 1 1.776-1.728c.424-.168.912-.252 1.464-.252.624 0 1.156.084 1.596.252.44.168.804.384 1.092.648.288.264.5.564.636.9.144.328.228.652.252.972a.275.275 0 0 1-.096.24.335.335 0 0 1-.228.084h-.972a.404.404 0 0 1-.228-.072.36.36 0 0 1-.132-.24 1.32 1.32 0 0 0-.168-.468 1.439 1.439 0 0 0-.36-.408 1.765 1.765 0 0 0-.576-.288 2.505 2.505 0 0 0-.816-.12c-.312 0-.584.048-.816.144a1.785 1.785 0 0 0-.588.384 1.76 1.76 0 0 0-.36.576 2.59 2.59 0 0 0-.144.708c-.016.304-.024.64-.024 1.008s.008.704.024 1.008c.016.256.064.496.144.72.088.216.208.404.36.564.16.16.356.288.588.384.232.096.504.144.816.144.312 0 .584-.036.816-.108.232-.08.424-.18.576-.3.16-.12.284-.256.372-.408a1.32 1.32 0 0 0 .168-.468zm5.683-3.696c.44 0 .836.068 1.188.204.36.136.668.324.924.564.264.24.472.52.624.84.16.32.252.664.276 1.032.008.072.012.164.012.276v.672a2.988 2.988 0 0 1-.288 1.296c-.152.32-.36.6-.624.84a2.868 2.868 0 0 1-.924.552 3.275 3.275 0 0 1-1.188.204c-.44 0-.84-.068-1.2-.204a3.05 3.05 0 0 1-.924-.552 2.77 2.77 0 0 1-.612-.84 2.988 2.988 0 0 1-.276-1.032 8.02 8.02 0 0 1-.024-.264v-.672c.008-.112.016-.204.024-.276.024-.368.112-.712.264-1.032.16-.32.368-.6.624-.84.264-.24.572-.428.924-.564.36-.136.76-.204 1.2-.204zm1.452 2.7a1.454 1.454 0 0 0-.18-.612 1.095 1.095 0 0 0-.78-.588 2.02 2.02 0 0 0-.984 0 1.155 1.155 0 0 0-.792.588c-.088.16-.144.364-.168.612a6.031 6.031 0 0 0-.024.24v.612c.008.096.016.172.024.228.024.248.08.456.168.624a1.245 1.245 0 0 0 .792.588 2.503 2.503 0 0 0 .984 0c.16-.04.308-.108.444-.204.136-.096.248-.224.336-.384a1.55 1.55 0 0 0 .18-.624c.008-.056.012-.132.012-.228v-.612a1.99 1.99 0 0 0-.012-.24zm2.877-2.256c0-.088.032-.164.096-.228a.311.311 0 0 1 .228-.096h.912c.088 0 .164.032.228.096s.096.14.096.228v3.048c0 .48.1.864.3 1.152.208.288.544.432 1.008.432.424 0 .748-.144.972-.432.224-.288.336-.672.336-1.152v-3.048c0-.088.032-.164.096-.228a.311.311 0 0 1 .228-.096h.912c.088 0 .164.032.228.096s.096.14.096.228v5.592a.311.311 0 0 1-.096.228.311.311 0 0 1-.228.096h-.912a.311.311 0 0 1-.228-.096.311.311 0 0 1-.096-.228v-.276a3.095 3.095 0 0 1-.684.504c-.272.144-.6.216-.984.216-.488 0-.892-.076-1.212-.228a2.024 2.024 0 0 1-.768-.612 2.38 2.38 0 0 1-.408-.888 4.754 4.754 0 0 1-.12-1.08v-3.228zm8.956 5.592a.311.311 0 0 1-.096.228.311.311 0 0 1-.228.096h-.912a.311.311 0 0 1-.228-.096.311.311 0 0 1-.096-.228v-7.872c0-.088.032-.164.096-.228a.311.311 0 0 1 .228-.096h.912c.088 0 .164.032.228.096s.096.14.096.228v7.872zm4.051-6.036c.248 0 .468.024.66.072.2.048.372.108.516.18.152.072.28.152.384.24.104.08.188.156.252.228v-2.556c0-.088.032-.164.096-.228a.311.311 0 0 1 .228-.096h.912c.088 0 .164.032.228.096s.096.14.096.228v7.872a.311.311 0 0 1-.096.228.311.311 0 0 1-.228.096h-.912a.311.311 0 0 1-.228-.096.311.311 0 0 1-.096-.228v-.276a2.507 2.507 0 0 1-.252.24c-.104.08-.232.156-.384.228a2.42 2.42 0 0 1-.516.18 2.733 2.733 0 0 1-.66.072c-.4 0-.764-.076-1.092-.228a2.788 2.788 0 0 1-.828-.624 3.285 3.285 0 0 1-.54-.9c-.128-.344-.2-.7-.216-1.068a6.408 6.408 0 0 1-.012-.42c0-.16.004-.3.012-.42.016-.368.088-.72.216-1.056.136-.344.316-.644.54-.9.232-.264.508-.472.828-.624.328-.16.692-.24 1.092-.24zm-1.116 2.904a3.145 3.145 0 0 0 0 .672c.048.52.208.896.48 1.128.272.224.604.336.996.336s.72-.116.984-.348c.272-.232.428-.564.468-.996.016-.12.024-.272.024-.456s-.008-.336-.024-.456c-.04-.416-.196-.744-.468-.984-.264-.24-.592-.36-.984-.36s-.724.116-.996.348c-.272.224-.432.596-.48 1.116zM204.17 194a.311.311 0 0 1-.228-.096.311.311 0 0 1-.096-.228v-7.752c0-.088.032-.164.096-.228a.311.311 0 0 1 .228-.096h3.54c.512 0 .94.08 1.284.24.344.152.62.348.828.588.208.232.356.488.444.768.096.272.144.528.144.768s-.032.456-.096.648a1.923 1.923 0 0 1-.24.48c-.088.128-.18.236-.276.324-.088.088-.16.148-.216.18.248.168.476.408.684.72.208.304.312.692.312 1.164 0 .304-.056.608-.168.912a2.533 2.533 0 0 1-.492.804c-.216.24-.488.436-.816.588-.32.144-.692.216-1.116.216h-3.816zm4.62-5.976c0-.304-.096-.532-.288-.684-.192-.16-.496-.24-.912-.24h-2.124v1.848h2.124c.416 0 .72-.076.912-.228.192-.16.288-.392.288-.696zm-3.324 4.476h2.22c.44 0 .76-.092.96-.276a.966.966 0 0 0 .312-.744.95.95 0 0 0-.324-.744c-.208-.192-.524-.288-.948-.288h-2.22v2.052zm6.187-1.62c0-.448.068-.868.204-1.26.136-.4.332-.744.588-1.032.256-.296.564-.528.924-.696a2.913 2.913 0 0 1 1.224-.252c.448 0 .852.084 1.212.252a2.777 2.777 0 0 1 1.524 1.632c.144.368.216.756.216 1.164v.54a.311.311 0 0 1-.096.228.311.311 0 0 1-.228.096h-4.008c0 .184.036.348.108.492.08.136.184.252.312.348.128.096.276.168.444.216.168.048.34.072.516.072.256 0 .464-.024.624-.072a1.41 1.41 0 0 0 .396-.204c.088-.064.16-.108.216-.132a.59.59 0 0 1 .228-.036h.96c.088 0 .164.032.228.096.072.064.104.14.096.228-.008.112-.072.256-.192.432a1.965 1.965 0 0 1-.516.516 3.494 3.494 0 0 1-2.04.612c-.448 0-.856-.076-1.224-.228a2.673 2.673 0 0 1-.924-.672 2.992 2.992 0 0 1-.588-1.02c-.136-.4-.204-.84-.204-1.32zm2.94-1.8c-.232 0-.432.036-.6.108-.16.064-.296.152-.408.264-.112.104-.2.224-.264.36a1.387 1.387 0 0 0-.108.372h2.712a1.701 1.701 0 0 0-.096-.372.837.837 0 0 0-.216-.36.958.958 0 0 0-.396-.264c-.16-.072-.368-.108-.624-.108zm10.118 4.596a.311.311 0 0 1-.096.228.311.311 0 0 1-.228.096h-.912a.311.311 0 0 1-.228-.096.311.311 0 0 1-.096-.228v-3.048c0-.48-.112-.864-.336-1.152-.224-.288-.568-.432-1.032-.432-.424 0-.76.144-1.008.432-.24.288-.36.672-.36 1.152v3.048a.311.311 0 0 1-.096.228.311.311 0 0 1-.228.096h-.912a.311.311 0 0 1-.228-.096.311.311 0 0 1-.096-.228v-5.592c0-.088.032-.164.096-.228a.311.311 0 0 1 .228-.096h.912c.088 0 .164.032.228.096s.096.14.096.228v.276c.208-.208.452-.38.732-.516.28-.136.612-.204.996-.204.488 0 .896.076 1.224.228.328.152.592.356.792.612.2.256.34.556.42.9a4.2 4.2 0 0 1 .132 1.068v3.228zm1.285-2.796c0-.448.068-.868.204-1.26.136-.4.332-.744.588-1.032.256-.296.564-.528.924-.696a2.913 2.913 0 0 1 1.224-.252c.448 0 .852.084 1.212.252a2.777 2.777 0 0 1 1.524 1.632c.144.368.216.756.216 1.164v.54a.311.311 0 0 1-.096.228.311.311 0 0 1-.228.096h-4.008c0 .184.036.348.108.492.08.136.184.252.312.348.128.096.276.168.444.216.168.048.34.072.516.072.256 0 .464-.024.624-.072a1.41 1.41 0 0 0 .396-.204c.088-.064.16-.108.216-.132a.59.59 0 0 1 .228-.036h.96c.088 0 .164.032.228.096.072.064.104.14.096.228-.008.112-.072.256-.192.432a1.965 1.965 0 0 1-.516.516 3.494 3.494 0 0 1-2.04.612c-.448 0-.856-.076-1.224-.228a2.673 2.673 0 0 1-.924-.672 2.992 2.992 0 0 1-.588-1.02c-.136-.4-.204-.84-.204-1.32zm2.94-1.8c-.232 0-.432.036-.6.108-.16.064-.296.152-.408.264-.112.104-.2.224-.264.36a1.387 1.387 0 0 0-.108.372h2.712a1.701 1.701 0 0 0-.096-.372.837.837 0 0 0-.216-.36.958.958 0 0 0-.396-.264c-.16-.072-.368-.108-.624-.108zm10.24 4.596a.311.311 0 0 1-.096.228.311.311 0 0 1-.228.096h-.912a.311.311 0 0 1-.228-.096.311.311 0 0 1-.096-.228V189.2h-2.352v4.476a.311.311 0 0 1-.096.228.311.311 0 0 1-.228.096h-.912a.311.311 0 0 1-.228-.096.311.311 0 0 1-.096-.228V189.2h-.792a.311.311 0 0 1-.228-.096.311.311 0 0 1-.096-.228v-.792c0-.088.032-.164.096-.228a.311.311 0 0 1 .228-.096h.792v-.54c0-.384.056-.708.168-.972.112-.272.272-.492.48-.66a1.9 1.9 0 0 1 .744-.36c.296-.072.624-.108.984-.108h2.772c.088 0 .164.032.228.096s.096.14.096.228v.792a.311.311 0 0 1-.096.228.311.311 0 0 1-.228.096H236.2c-.304 0-.536.056-.696.168-.16.104-.24.308-.24.612v.42h3.588c.088 0 .164.032.228.096s.096.14.096.228v5.592zm3.752-1.932c0 .248.064.448.192.6.136.144.384.216.744.216h.732c.088 0 .164.032.228.096s.096.14.096.228v.792a.311.311 0 0 1-.096.228.311.311 0 0 1-.228.096h-.888c-.752 0-1.332-.18-1.74-.54-.4-.368-.6-.928-.6-1.68v-2.58h-.792a.311.311 0 0 1-.228-.096.311.311 0 0 1-.096-.228v-.792c0-.088.032-.164.096-.228a.311.311 0 0 1 .228-.096h.792v-1.956c0-.088.032-.164.096-.228a.311.311 0 0 1 .228-.096h.912c.088 0 .164.032.228.096s.096.14.096.228v1.956h1.548c.088 0 .164.032.228.096s.096.14.096.228v.792a.311.311 0 0 1-.096.228.311.311 0 0 1-.228.096h-1.548v2.544zm12.044-6.144c.088 0 .164.032.228.096s.096.14.096.228c0 .04-.008.076-.024.108l-2.844 5.004v2.64a.311.311 0 0 1-.096.228.311.311 0 0 1-.228.096h-.96a.311.311 0 0 1-.228-.096.311.311 0 0 1-.096-.228v-2.64l-2.844-5.004a.238.238 0 0 1-.024-.108c0-.088.032-.164.096-.228a.311.311 0 0 1 .228-.096h.9c.16 0 .28.04.36.12.08.08.128.14.144.18l1.944 3.396 1.944-3.396c.016-.04.064-.1.144-.18.08-.08.2-.12.36-.12h.9zm3.17 2.04c.44 0 .836.068 1.188.204.36.136.668.324.924.564.264.24.472.52.624.84.16.32.252.664.276 1.032.008.072.012.164.012.276v.672a2.988 2.988 0 0 1-.288 1.296c-.152.32-.36.6-.624.84a2.868 2.868 0 0 1-.924.552 3.275 3.275 0 0 1-1.188.204c-.44 0-.84-.068-1.2-.204a3.05 3.05 0 0 1-.924-.552 2.77 2.77 0 0 1-.612-.84 2.988 2.988 0 0 1-.276-1.032 8.02 8.02 0 0 1-.024-.264v-.672c.008-.112.016-.204.024-.276.024-.368.112-.712.264-1.032.16-.32.368-.6.624-.84.264-.24.572-.428.924-.564.36-.136.76-.204 1.2-.204zm1.452 2.7a1.454 1.454 0 0 0-.18-.612 1.095 1.095 0 0 0-.78-.588 2.02 2.02 0 0 0-.984 0 1.155 1.155 0 0 0-.792.588c-.088.16-.144.364-.168.612a6.031 6.031 0 0 0-.024.24v.612c.008.096.016.172.024.228.024.248.08.456.168.624a1.245 1.245 0 0 0 .792.588 2.503 2.503 0 0 0 .984 0c.16-.04.308-.108.444-.204.136-.096.248-.224.336-.384a1.55 1.55 0 0 0 .18-.624c.008-.056.012-.132.012-.228v-.612a1.99 1.99 0 0 0-.012-.24zm2.877-2.256c0-.088.032-.164.096-.228a.311.311 0 0 1 .228-.096h.912c.088 0 .164.032.228.096s.096.14.096.228v3.048c0 .48.1.864.3 1.152.208.288.544.432 1.008.432.424 0 .748-.144.972-.432.224-.288.336-.672.336-1.152v-3.048c0-.088.032-.164.096-.228a.311.311 0 0 1 .228-.096h.912c.088 0 .164.032.228.096s.096.14.096.228v5.592a.311.311 0 0 1-.096.228.311.311 0 0 1-.228.096h-.912a.311.311 0 0 1-.228-.096.311.311 0 0 1-.096-.228v-.276a3.095 3.095 0 0 1-.684.504c-.272.144-.6.216-.984.216-.488 0-.892-.076-1.212-.228a2.024 2.024 0 0 1-.768-.612 2.38 2.38 0 0 1-.408-.888 4.754 4.754 0 0 1-.12-1.08v-3.228zm10.468 4.212c.088 0 .164.032.228.096s.096.14.096.228v1.056a.311.311 0 0 1-.096.228.311.311 0 0 1-.228.096h-1.032a.311.311 0 0 1-.228-.096.311.311 0 0 1-.096-.228v-1.056c0-.088.032-.164.096-.228a.311.311 0 0 1 .228-.096h1.032zm-.48-6.816c.376 0 .74.052 1.092.156.36.104.676.26.948.468.28.2.504.452.672.756.168.296.252.64.252 1.032 0 .32-.052.6-.156.84a2.452 2.452 0 0 1-.384.636 4.38 4.38 0 0 1-.504.516c-.184.152-.36.3-.528.444-.16.136-.304.28-.432.432-.12.152-.192.316-.216.492a.466.466 0 0 1-.108.228.274.274 0 0 1-.216.096h-.912a.353.353 0 0 1-.24-.096.274.274 0 0 1-.084-.228c.016-.312.08-.584.192-.816.12-.24.26-.452.42-.636.168-.192.344-.364.528-.516.192-.152.368-.296.528-.432.16-.144.292-.284.396-.42a.783.783 0 0 0 .156-.468.89.89 0 0 0-.384-.744c-.256-.2-.596-.3-1.02-.3-.68 0-1.18.34-1.5 1.02a.692.692 0 0 1-.132.204c-.04.04-.112.06-.216.06h-.972a.287.287 0 0 1-.192-.072.26.26 0 0 1-.072-.192c.008-.28.092-.564.252-.852.168-.296.388-.56.66-.792.28-.24.604-.436.972-.588a3.171 3.171 0 0 1 1.2-.228z" fill="#000"/>
        <rect x="30.896" y="233.867" width="298.209" height="42.985" rx="8.888" fill="#fff"/>
        <rect x="31.563" y="234.534" width="296.876" height="41.652" rx="8.221" stroke="#191B30" stroke-opacity=".4" stroke-width="1.333"/>
        <path d="M48.115 248.489c.348 0 .675.043.981.128.313.085.587.217.821.395.235.177.42.405.555.682.142.278.213.612.213 1.003 0 .576-.146 1.034-.437 1.376-.284.341-.65.583-1.099.725l1.61 2.805a.268.268 0 0 1 .033.117.236.236 0 0 1-.075.171.216.216 0 0 1-.16.064H50.1c-.143 0-.25-.035-.32-.107a1.109 1.109 0 0 1-.139-.181l-1.547-2.72H46.26v2.72a.278.278 0 0 1-.085.203.276.276 0 0 1-.203.085h-.437a.276.276 0 0 1-.203-.085.278.278 0 0 1-.085-.203v-6.89c0-.078.028-.146.085-.203a.28.28 0 0 1 .203-.085h2.58zm-1.856 3.498h1.803c.511 0 .906-.099 1.183-.298.285-.206.427-.537.427-.992 0-.455-.142-.775-.427-.96-.277-.192-.672-.288-1.183-.288h-1.803v2.538zm5.488.662c.028-.327.106-.633.234-.918.128-.284.295-.533.502-.746.206-.213.451-.381.736-.501.291-.121.615-.182.97-.182.384 0 .725.064 1.024.192.306.121.565.299.779.534.213.234.377.519.49.853.114.334.171.707.171 1.12v.288a.276.276 0 0 1-.085.202.277.277 0 0 1-.203.086h-3.669v.064c.014.483.16.856.437 1.12.285.255.637.383 1.056.383.391 0 .683-.053.875-.159.199-.114.359-.239.48-.374a.606.606 0 0 1 .15-.117.451.451 0 0 1 .191-.032h.32c.078 0 .15.028.213.085a.208.208 0 0 1 .075.203c-.021.128-.082.27-.181.426-.1.15-.246.292-.438.427-.184.128-.42.238-.704.331a3.363 3.363 0 0 1-.98.128 2.43 2.43 0 0 1-.96-.182 2.479 2.479 0 0 1-.747-.512 2.702 2.702 0 0 1-.502-.767 3.093 3.093 0 0 1-.234-.971 4.519 4.519 0 0 1 0-.981zm.949.032h2.997v-.032c0-.434-.139-.779-.416-1.035-.27-.263-.633-.394-1.088-.394-.206 0-.398.035-.576.106-.178.064-.334.16-.469.288-.135.121-.242.27-.32.448-.078.178-.12.373-.128.587v.032zm7.398-2.379c.441 0 .793.078 1.056.235.263.149.462.313.597.491v-2.358c0-.078.029-.145.086-.202a.277.277 0 0 1 .202-.086h.395c.078 0 .146.029.203.086a.276.276 0 0 1 .085.202v6.997a.278.278 0 0 1-.085.203.276.276 0 0 1-.203.085h-.395a.276.276 0 0 1-.202-.085.278.278 0 0 1-.086-.203v-.331a1.915 1.915 0 0 1-.608.512c-.263.143-.611.214-1.045.214-.334 0-.647-.057-.938-.171a2.25 2.25 0 0 1-.747-.512 2.485 2.485 0 0 1-.512-.8 3.24 3.24 0 0 1-.224-1.056 5.123 5.123 0 0 1 0-.693 3.24 3.24 0 0 1 .224-1.056 2.36 2.36 0 0 1 .512-.789c.213-.221.462-.388.747-.501.291-.121.604-.182.938-.182zm1.653 3.339a6.55 6.55 0 0 0 .011-.416c0-.178-.004-.32-.01-.427-.022-.505-.175-.892-.46-1.163-.277-.277-.64-.415-1.087-.415-.47 0-.84.149-1.11.447-.27.299-.419.704-.447 1.216a8.28 8.28 0 0 0 0 .598c.028.512.177.917.448 1.216.27.298.64.447 1.109.447.44 0 .803-.135 1.088-.405.284-.27.437-.636.458-1.098zm2.514-2.944c0-.078.028-.146.085-.203a.276.276 0 0 1 .203-.085h.394c.079 0 .146.028.203.085a.278.278 0 0 1 .085.203v2.816c0 .547.121.956.363 1.226.249.27.608.405 1.077.405.448 0 .8-.135 1.056-.405s.384-.679.384-1.226v-2.816c0-.078.028-.146.085-.203a.276.276 0 0 1 .203-.085h.395c.078 0 .145.028.202.085a.278.278 0 0 1 .086.203v4.97a.278.278 0 0 1-.086.203.276.276 0 0 1-.202.085h-.395a.276.276 0 0 1-.203-.085.278.278 0 0 1-.085-.203v-.331a2.155 2.155 0 0 1-.576.502c-.249.149-.59.224-1.024.224a2.55 2.55 0 0 1-.917-.16 2.145 2.145 0 0 1-.715-.47 2.095 2.095 0 0 1-.458-.746 3.003 3.003 0 0 1-.16-1.013v-2.976zm7.132 2.858c.028.285.089.526.181.726.1.199.217.362.352.49.142.128.299.224.47.288.17.057.344.085.522.085.341 0 .633-.064.874-.191.242-.128.43-.342.566-.64a.54.54 0 0 1 .15-.224.326.326 0 0 1 .202-.064h.32c.078 0 .145.028.202.085a.232.232 0 0 1 .086.203c-.007.17-.064.359-.171.565a1.85 1.85 0 0 1-.459.565c-.199.171-.448.317-.746.437a2.657 2.657 0 0 1-1.024.182c-.391 0-.74-.064-1.045-.192a2.327 2.327 0 0 1-.768-.523 2.5 2.5 0 0 1-.49-.778 3.041 3.041 0 0 1-.193-.96 22.904 22.904 0 0 1-.021-.416c0-.171.007-.317.021-.438.029-.341.1-.661.213-.96a2.5 2.5 0 0 1 .491-.778c.206-.221.459-.395.757-.523a2.607 2.607 0 0 1 1.035-.192c.391 0 .732.061 1.024.182.298.12.547.27.746.448.207.17.36.359.459.565.107.199.164.384.17.554a.232.232 0 0 1-.085.203.276.276 0 0 1-.202.085h-.32a.37.37 0 0 1-.203-.053.667.667 0 0 1-.15-.235c-.134-.298-.323-.512-.564-.639-.242-.128-.534-.192-.875-.192-.178 0-.356.032-.533.096-.171.056-.328.149-.47.277a1.734 1.734 0 0 0-.352.49c-.092.2-.149.441-.17.726a4.359 4.359 0 0 0 0 .746zm4.945-.906c.029-.327.107-.633.235-.918.128-.284.295-.533.501-.746.206-.213.452-.381.736-.501.292-.121.615-.182.97-.182.385 0 .726.064 1.025.192.305.121.565.299.778.534.213.234.377.519.49.853.115.334.172.707.172 1.12v.288a.276.276 0 0 1-.086.202.277.277 0 0 1-.203.086h-3.669v.064c.015.483.16.856.438 1.12.284.255.636.383 1.056.383.39 0 .682-.053.874-.159.2-.114.36-.239.48-.374a.608.608 0 0 1 .15-.117.451.451 0 0 1 .192-.032h.32c.078 0 .149.028.213.085a.208.208 0 0 1 .075.203c-.022.128-.082.27-.182.426-.1.15-.245.292-.437.427-.185.128-.42.238-.704.331a3.363 3.363 0 0 1-.981.128 2.43 2.43 0 0 1-.96-.182 2.479 2.479 0 0 1-.747-.512 2.702 2.702 0 0 1-.501-.767 3.09 3.09 0 0 1-.235-.971 4.519 4.519 0 0 1 0-.981zm.95.032h2.996v-.032c0-.434-.138-.779-.415-1.035-.27-.263-.633-.394-1.088-.394-.207 0-.399.035-.576.106a1.33 1.33 0 0 0-.47.288c-.135.121-.241.27-.32.448-.078.178-.12.373-.128.587v.032zm11.281.32 2.155-4.171a.902.902 0 0 1 .17-.234.427.427 0 0 1 .3-.107h.404a.28.28 0 0 1 .203.085.278.278 0 0 1 .085.203v6.89a.278.278 0 0 1-.085.203.276.276 0 0 1-.203.085h-.437a.276.276 0 0 1-.202-.085.278.278 0 0 1-.086-.203v-5.055l-1.664 3.21a1.07 1.07 0 0 1-.18.256.37.37 0 0 1-.257.085h-.405a.37.37 0 0 1-.256-.085 1.07 1.07 0 0 1-.181-.256l-1.664-3.21v5.055a.278.278 0 0 1-.086.203.276.276 0 0 1-.202.085h-.438a.276.276 0 0 1-.202-.085.278.278 0 0 1-.086-.203v-6.89c0-.078.029-.146.086-.203a.28.28 0 0 1 .202-.085h.406a.39.39 0 0 1 .288.107.804.804 0 0 1 .181.234l2.154 4.171zm7.306-2.699c.384 0 .725.061 1.024.182.298.113.554.273.768.48.213.206.38.458.501.757.128.291.206.611.235.96.007.064.01.142.01.234v.555c0 .085-.003.156-.01.213a3.411 3.411 0 0 1-.235.971c-.12.291-.288.54-.501.746a2.36 2.36 0 0 1-.768.491c-.299.114-.64.171-1.024.171s-.725-.057-1.024-.171a2.36 2.36 0 0 1-.768-.491 2.324 2.324 0 0 1-.512-.746 3.183 3.183 0 0 1-.224-.971 5.605 5.605 0 0 1-.021-.213v-.555c.007-.092.014-.17.021-.234.029-.349.103-.669.224-.96.128-.299.299-.551.512-.757a2.21 2.21 0 0 1 .768-.48 2.71 2.71 0 0 1 1.024-.182zm1.557 3.328c.014-.121.021-.267.021-.437 0-.178-.007-.331-.021-.459a2.292 2.292 0 0 0-.139-.597 1.373 1.373 0 0 0-.768-.8 1.665 1.665 0 0 0-.65-.117c-.249 0-.466.039-.65.117a1.374 1.374 0 0 0-.769.8 2.292 2.292 0 0 0-.138.597 4.212 4.212 0 0 0-.022.459c0 .17.007.316.022.437.021.213.067.412.138.597a1.374 1.374 0 0 0 .768.8c.185.078.402.117.65.117.25 0 .467-.039.651-.117a1.373 1.373 0 0 0 .768-.8c.072-.185.118-.384.139-.597zm7.254 2.037a.277.277 0 0 1-.085.203.276.276 0 0 1-.203.085h-.394a.276.276 0 0 1-.203-.085.277.277 0 0 1-.085-.203v-2.816c0-.547-.132-.956-.395-1.226s-.629-.405-1.098-.405c-.448 0-.811.135-1.088.405-.271.27-.406.679-.406 1.226v2.816a.277.277 0 0 1-.085.203.276.276 0 0 1-.203.085h-.394a.276.276 0 0 1-.203-.085.278.278 0 0 1-.085-.203v-4.97c0-.078.028-.146.085-.203a.276.276 0 0 1 .203-.085h.394c.079 0 .146.028.203.085a.277.277 0 0 1 .085.203v.331c.135-.178.334-.342.598-.491.27-.157.622-.235 1.055-.235.335 0 .644.057.928.171.285.107.527.263.726.469.206.199.366.448.48.747.113.298.17.633.17 1.002v2.976zm2.918-1.578c0 .135.011.263.032.384a.835.835 0 0 0 .139.298.647.647 0 0 0 .267.203c.121.042.274.064.458.064h.566c.078 0 .145.028.202.085a.278.278 0 0 1 .086.203v.341a.278.278 0 0 1-.086.203.275.275 0 0 1-.202.085h-.672c-.619 0-1.067-.16-1.344-.48-.277-.32-.416-.782-.416-1.386v-2.763h-.789a.276.276 0 0 1-.203-.085.277.277 0 0 1-.085-.203v-.341c0-.078.028-.146.085-.203a.276.276 0 0 1 .203-.085h.789v-1.739c0-.078.028-.145.085-.202a.278.278 0 0 1 .203-.086h.395c.078 0 .145.029.202.086a.275.275 0 0 1 .085.202v1.739h1.355c.078 0 .146.028.203.085a.277.277 0 0 1 .085.203v.341a.277.277 0 0 1-.085.203.277.277 0 0 1-.203.085h-1.355v2.763zm7.748 1.578a.281.281 0 0 1-.085.203.277.277 0 0 1-.203.085h-.395a.275.275 0 0 1-.202-.085.278.278 0 0 1-.086-.203v-2.816c0-.547-.131-.956-.394-1.226s-.63-.405-1.099-.405c-.448 0-.81.135-1.088.405-.27.27-.405.679-.405 1.226v2.816a.277.277 0 0 1-.085.203.277.277 0 0 1-.203.085h-.395a.275.275 0 0 1-.202-.085.278.278 0 0 1-.086-.203v-6.997c0-.078.029-.145.086-.202a.276.276 0 0 1 .202-.086h.395c.078 0 .146.029.203.086a.275.275 0 0 1 .085.202v2.358c.135-.178.334-.342.597-.491.27-.157.622-.235 1.056-.235.334 0 .644.057.928.171.284.107.526.263.725.469.207.199.367.448.48.747.114.298.171.633.171 1.002v2.976zm2.522 0a.278.278 0 0 1-.086.203.275.275 0 0 1-.202.085h-.395a.277.277 0 0 1-.203-.085.277.277 0 0 1-.085-.203v-6.997c0-.078.028-.145.085-.202a.278.278 0 0 1 .203-.086h.395c.078 0 .145.029.202.086a.276.276 0 0 1 .086.202v6.997zm3.233 2.059a.558.558 0 0 1-.106.17.256.256 0 0 1-.203.086h-.437a.245.245 0 0 1-.181-.075.246.246 0 0 1-.075-.181c0-.029.003-.054.011-.075l1.023-2.229-2.111-4.682a.247.247 0 0 1-.011-.075c0-.071.025-.132.075-.181a.245.245 0 0 1 .181-.075h.437c.086 0 .153.028.203.085.05.057.085.114.107.171l1.642 3.626 1.664-3.626a.555.555 0 0 1 .107-.171.253.253 0 0 1 .202-.085h.438c.071 0 .131.025.181.075.05.049.075.11.075.181a.247.247 0 0 1-.011.075l-3.211 6.986zm9.711-9.237c.348 0 .675.046.981.139.313.085.587.22.821.405.235.185.42.42.555.704.142.284.213.622.213 1.013 0 .391-.071.733-.213 1.024-.135.285-.32.523-.555.715a2.301 2.301 0 0 1-.821.426 3.357 3.357 0 0 1-.981.139h-1.963v2.613a.277.277 0 0 1-.085.203.276.276 0 0 1-.203.085h-.437a.274.274 0 0 1-.202-.085.278.278 0 0 1-.086-.203v-6.89c0-.078.029-.146.086-.203a.277.277 0 0 1 .202-.085h2.688zm-1.963 3.605h1.91c.512 0 .906-.11 1.183-.331.285-.22.427-.558.427-1.013 0-.455-.142-.785-.427-.992-.277-.206-.671-.309-1.183-.309h-1.91v2.645zm5.193 2.464c0-.285.057-.533.171-.747a1.65 1.65 0 0 1 .469-.544c.199-.149.43-.27.694-.362.27-.093.554-.164.853-.214l1.504-.245v-.139c0-.362-.121-.632-.363-.81-.235-.185-.53-.277-.885-.277-.313 0-.551.056-.715.17a1.852 1.852 0 0 0-.405.405.36.36 0 0 1-.139.118.53.53 0 0 1-.202.032h-.32a.314.314 0 0 1-.214-.086.24.24 0 0 1-.074-.202c.014-.157.074-.317.181-.48.114-.164.263-.309.448-.437.192-.128.409-.232.651-.31.248-.085.511-.128.789-.128.32 0 .615.046.885.139a1.9 1.9 0 0 1 .704.405c.199.178.352.398.459.661.113.264.17.566.17.907v3.253a.277.277 0 0 1-.085.203.276.276 0 0 1-.203.085h-.394a.276.276 0 0 1-.203-.085.277.277 0 0 1-.085-.203v-.437a1.016 1.016 0 0 1-.299.362c-.135.1-.291.185-.469.256a2.595 2.595 0 0 1-.544.16 2.741 2.741 0 0 1-.523.054c-.277 0-.533-.039-.768-.118a1.986 1.986 0 0 1-.586-.309 1.535 1.535 0 0 1-.374-.48 1.413 1.413 0 0 1-.128-.597zm1.963.586c.256 0 .49-.039.704-.117.213-.078.394-.185.544-.32a1.38 1.38 0 0 0 .352-.501c.085-.192.128-.405.128-.64v-.267l-1.259.203c-.448.071-.803.185-1.066.341-.264.157-.395.359-.395.608 0 .078.018.157.053.235a.709.709 0 0 0 .171.224.855.855 0 0 0 .299.17c.128.043.284.064.469.064zm5.74 2.582a.558.558 0 0 1-.106.17.257.257 0 0 1-.203.086h-.437a.248.248 0 0 1-.182-.075.25.25 0 0 1-.074-.181c0-.029.003-.054.01-.075l1.024-2.229-2.111-4.682a.22.22 0 0 1-.011-.075c0-.071.025-.132.075-.181a.245.245 0 0 1 .181-.075h.437c.086 0 .153.028.203.085a.55.55 0 0 1 .106.171l1.643 3.626 1.664-3.626a.555.555 0 0 1 .107-.171.253.253 0 0 1 .202-.085h.437c.072 0 .132.025.182.075.05.049.074.11.074.181a.248.248 0 0 1-.01.075l-3.211 6.986zm5.276-6.698c.064-.086.139-.171.224-.256.085-.093.181-.171.288-.235a1.55 1.55 0 0 1 .395-.171c.149-.042.323-.064.522-.064.434 0 .793.082 1.077.246.285.156.509.384.672.682.093-.128.189-.249.288-.362.107-.114.228-.214.363-.299a1.74 1.74 0 0 1 .469-.192c.178-.05.384-.075.619-.075.718 0 1.241.217 1.568.651.327.427.49 1.013.49 1.76v2.954a.277.277 0 0 1-.085.203.276.276 0 0 1-.203.085h-.394a.277.277 0 0 1-.203-.085.277.277 0 0 1-.085-.203v-2.848c0-.547-.107-.949-.32-1.205-.213-.263-.526-.394-.939-.394-.377 0-.682.124-.917.373-.227.249-.341.633-.341 1.152v2.922a.278.278 0 0 1-.086.203.274.274 0 0 1-.202.085h-.395a.277.277 0 0 1-.203-.085.281.281 0 0 1-.085-.203v-2.848c0-.547-.106-.949-.32-1.205-.213-.263-.526-.394-.938-.394-.377 0-.683.124-.918.373-.227.249-.341.633-.341 1.152v2.922a.277.277 0 0 1-.085.203.277.277 0 0 1-.203.085h-.395a.275.275 0 0 1-.202-.085.278.278 0 0 1-.086-.203v-4.97c0-.078.029-.146.086-.203a.275.275 0 0 1 .202-.085h.395c.078 0 .146.028.203.085a.277.277 0 0 1 .085.203v.331zm8.262 1.621c.029-.327.107-.633.235-.918.128-.284.295-.533.501-.746a2.21 2.21 0 0 1 .736-.501 2.51 2.51 0 0 1 .971-.182c.384 0 .725.064 1.024.192.305.121.565.299.778.534.213.234.377.519.491.853.114.334.17.707.17 1.12v.288a.275.275 0 0 1-.085.202.277.277 0 0 1-.203.086h-3.669v.064c.015.483.16.856.438 1.12.284.255.636.383 1.056.383.391 0 .682-.053.874-.159.199-.114.359-.239.48-.374a.603.603 0 0 1 .15-.117.445.445 0 0 1 .191-.032h.32c.079 0 .15.028.214.085a.206.206 0 0 1 .074.203c-.021.128-.081.27-.181.426a1.65 1.65 0 0 1-.437.427c-.185.128-.42.238-.704.331a3.359 3.359 0 0 1-.981.128c-.356 0-.676-.061-.96-.182a2.47 2.47 0 0 1-.747-.512 2.706 2.706 0 0 1-.501-.767 3.107 3.107 0 0 1-.235-.971 4.596 4.596 0 0 1 0-.981zm.949.032h2.998v-.032c0-.434-.139-.779-.416-1.035-.271-.263-.633-.394-1.088-.394-.207 0-.399.035-.576.106-.178.064-.334.16-.47.288-.135.121-.241.27-.32.448-.078.178-.12.373-.128.587v.032zm10.172 2.986a.278.278 0 0 1-.086.203.275.275 0 0 1-.202.085h-.395a.277.277 0 0 1-.203-.085.281.281 0 0 1-.085-.203v-2.816c0-.547-.131-.956-.395-1.226-.263-.27-.629-.405-1.098-.405-.448 0-.811.135-1.088.405-.27.27-.405.679-.405 1.226v2.816a.278.278 0 0 1-.086.203.275.275 0 0 1-.202.085h-.395a.277.277 0 0 1-.203-.085.281.281 0 0 1-.085-.203v-4.97c0-.078.029-.146.085-.203a.277.277 0 0 1 .203-.085h.395c.078 0 .145.028.202.085a.278.278 0 0 1 .086.203v.331c.135-.178.334-.342.597-.491.27-.157.622-.235 1.056-.235.334 0 .643.057.928.171.284.107.526.263.725.469.206.199.366.448.48.747.114.298.171.633.171 1.002v2.976zm2.918-1.578c0 .135.011.263.032.384a.819.819 0 0 0 .139.298.643.643 0 0 0 .266.203c.121.042.274.064.459.064h.565c.078 0 .146.028.203.085a.277.277 0 0 1 .085.203v.341a.277.277 0 0 1-.085.203.277.277 0 0 1-.203.085h-.672c-.618 0-1.066-.16-1.344-.48-.277-.32-.416-.782-.416-1.386v-2.763h-.789a.277.277 0 0 1-.203-.085.281.281 0 0 1-.085-.203v-.341c0-.078.029-.146.085-.203a.277.277 0 0 1 .203-.085h.789v-1.739c0-.078.029-.145.086-.202a.276.276 0 0 1 .202-.086h.395c.078 0 .146.029.203.086a.28.28 0 0 1 .085.202v1.739h1.354c.079 0 .146.028.203.085a.277.277 0 0 1 .085.203v.341a.277.277 0 0 1-.085.203.276.276 0 0 1-.203.085h-1.354v2.763z" fill="#000"/>
        <rect x="30.896" y="287.598" width="298.209" height="42.985" rx="8.888" fill="#40A79D"/>
        <path d="M45.384 309.686a.26.26 0 0 1-.192-.075.26.26 0 0 1-.074-.192v-6.933a.26.26 0 0 1 .074-.192.259.259 0 0 1 .192-.074h2.827c.889 0 1.589.206 2.1.618.513.405.769.992.769 1.76 0 .519-.125.953-.373 1.301a2.237 2.237 0 0 1-1.003.779l1.504 2.666a.267.267 0 0 1 .032.118c0 .056-.022.11-.064.16a.22.22 0 0 1-.16.064h-1.184c-.128 0-.224-.032-.288-.096a.951.951 0 0 1-.139-.192l-1.3-2.443h-1.291v2.464a.26.26 0 0 1-.075.192.259.259 0 0 1-.192.075h-1.163zm1.43-4.085h1.365c.39 0 .679-.089.864-.267.192-.178.288-.427.288-.747s-.093-.572-.278-.757c-.184-.185-.476-.277-.874-.277h-1.365v2.048zm7.858 4.191c-.818 0-1.468-.227-1.952-.682-.476-.455-.728-1.117-.757-1.984V306.667c.029-.547.153-1.017.373-1.408.22-.398.53-.7.928-.906.398-.214.864-.32 1.397-.32.598 0 1.096.124 1.494.373.405.242.707.576.906 1.003.206.419.31.903.31 1.45v.245a.233.233 0 0 1-.086.182.245.245 0 0 1-.181.074h-3.488v.086c.007.227.05.437.128.629.086.185.203.334.352.448a.916.916 0 0 0 .555.171c.177 0 .323-.025.437-.075a.9.9 0 0 0 .277-.181c.079-.071.136-.132.171-.182a.516.516 0 0 1 .15-.128.451.451 0 0 1 .191-.032h1.11c.07 0 .127.022.17.064.05.036.071.089.064.16-.007.114-.067.256-.181.427a2.063 2.063 0 0 1-.48.491c-.213.156-.48.288-.8.394-.313.107-.675.16-1.088.16zm-1.056-3.402h2.09v-.021c0-.256-.042-.477-.127-.662a.97.97 0 0 0-.352-.448.984.984 0 0 0-.566-.16.984.984 0 0 0-.565.16 1.038 1.038 0 0 0-.362.448 1.696 1.696 0 0 0-.118.662v.021zm6.88 3.402c-.356 0-.673-.057-.95-.17a1.963 1.963 0 0 1-.704-.512 2.367 2.367 0 0 1-.437-.8c-.1-.313-.16-.658-.182-1.035a6.877 6.877 0 0 1 0-.725 3.72 3.72 0 0 1 .171-1.013c.107-.306.252-.569.437-.79.192-.227.427-.401.704-.522.285-.128.605-.192.96-.192.37 0 .686.064.95.192.263.121.48.281.65.48v-2.325c0-.079.025-.143.075-.192a.259.259 0 0 1 .192-.075h1.098a.257.257 0 0 1 .256.267v7.039a.26.26 0 0 1-.075.192.246.246 0 0 1-.18.075h-1.025a.246.246 0 0 1-.181-.075.26.26 0 0 1-.075-.192v-.363a2.19 2.19 0 0 1-.672.534c-.27.135-.608.202-1.013.202zm.49-1.28c.263 0 .473-.06.629-.181.164-.121.28-.274.352-.459.078-.184.12-.384.128-.597a3.869 3.869 0 0 0 0-.8 1.436 1.436 0 0 0-.128-.554 1.032 1.032 0 0 0-.363-.438c-.156-.113-.362-.17-.618-.17-.27 0-.484.06-.64.181a.97.97 0 0 0-.341.459 2.465 2.465 0 0 0-.118.629c-.021.22-.021.441 0 .661.014.228.053.437.117.629.072.192.185.349.342.47.156.113.37.17.64.17zm6.123 1.28c-.413 0-.779-.092-1.099-.277a1.974 1.974 0 0 1-.736-.821c-.17-.363-.256-.8-.256-1.312v-2.976a.26.26 0 0 1 .075-.192c.05-.05.11-.075.181-.075h1.13a.26.26 0 0 1 .193.075.26.26 0 0 1 .074.192v2.912c0 .796.349 1.194 1.046 1.194.334 0 .597-.103.789-.309.199-.213.299-.508.299-.885v-2.912a.26.26 0 0 1 .074-.192.26.26 0 0 1 .192-.075h1.13c.072 0 .132.025.182.075a.26.26 0 0 1 .075.192v5.013a.26.26 0 0 1-.075.192.246.246 0 0 1-.181.075h-1.046a.26.26 0 0 1-.192-.075.26.26 0 0 1-.074-.192v-.416a1.807 1.807 0 0 1-.715.587c-.291.135-.647.202-1.066.202zm7.155 0c-.52 0-.978-.096-1.376-.288a2.233 2.233 0 0 1-.928-.832c-.227-.369-.352-.81-.373-1.322a7.064 7.064 0 0 1-.011-.427c0-.178.004-.323.01-.437.022-.519.143-.96.363-1.323.228-.369.54-.65.939-.842.398-.192.857-.288 1.376-.288.476 0 .882.067 1.216.202.334.128.608.292.82.491.214.199.37.409.47.629.107.214.164.402.17.566a.23.23 0 0 1-.074.192.25.25 0 0 1-.181.074h-1.141a.261.261 0 0 1-.171-.053.91.91 0 0 1-.107-.171c-.1-.249-.227-.426-.384-.533a1.015 1.015 0 0 0-.586-.16c-.32 0-.573.103-.758.309-.184.206-.284.526-.298.96-.007.277-.007.53 0 .757.021.441.12.761.299.96.184.199.437.299.757.299.249 0 .448-.053.597-.16.15-.107.274-.284.373-.533a.39.39 0 0 1 .107-.16.23.23 0 0 1 .17-.064h1.142c.071 0 .131.028.181.085.057.05.082.11.075.181a1.438 1.438 0 0 1-.107.427 1.724 1.724 0 0 1-.288.501 2.303 2.303 0 0 1-.501.48c-.206.142-.459.26-.757.352a3.637 3.637 0 0 1-1.024.128zm6.197 0c-.817 0-1.468-.227-1.951-.682-.477-.455-.73-1.117-.758-1.984V306.667c.029-.547.153-1.017.374-1.408.22-.398.53-.7.927-.906.399-.214.864-.32 1.398-.32.597 0 1.095.124 1.493.373.405.242.707.576.906 1.003.207.419.31.903.31 1.45v.245a.233.233 0 0 1-.085.182.246.246 0 0 1-.182.074h-3.487v.086c.007.227.05.437.127.629.086.185.203.334.352.448a.916.916 0 0 0 .555.171c.178 0 .324-.025.437-.075a.898.898 0 0 0 .278-.181c.078-.071.135-.132.17-.182a.516.516 0 0 1 .15-.128.451.451 0 0 1 .192-.032h1.109c.07 0 .128.022.17.064.05.036.072.089.064.16-.007.114-.067.256-.18.427a2.06 2.06 0 0 1-.48.491c-.214.156-.48.288-.8.394-.314.107-.676.16-1.089.16zm-1.055-3.402h2.09v-.021a1.57 1.57 0 0 0-.128-.662.97.97 0 0 0-.352-.448.984.984 0 0 0-.565-.16.984.984 0 0 0-.566.16 1.038 1.038 0 0 0-.362.448 1.696 1.696 0 0 0-.117.662v.021zm7.558 3.296a.259.259 0 0 1-.192-.075.26.26 0 0 1-.075-.192v-6.933a.26.26 0 0 1 .075-.192.258.258 0 0 1 .192-.074h2.677c.711 0 1.305.113 1.781.341.477.22.84.547 1.088.981.256.427.391.956.405 1.589.007.313.011.587.011.822 0 .234-.004.504-.01.81-.022.661-.154 1.209-.395 1.643a2.253 2.253 0 0 1-1.067.97c-.47.206-1.056.31-1.76.31h-2.73zm1.429-1.376h1.248c.355 0 .647-.054.874-.16.228-.107.395-.274.502-.502.114-.234.174-.536.181-.906.007-.206.01-.391.01-.555a5.639 5.639 0 0 0 0-.49c0-.164-.003-.345-.01-.544-.014-.534-.153-.925-.416-1.174-.256-.256-.654-.384-1.194-.384h-1.195v4.715zm8.223 1.482c-.818 0-1.468-.227-1.952-.682-.476-.455-.728-1.117-.757-1.984V306.667c.029-.547.153-1.017.373-1.408.22-.398.53-.7.928-.906.398-.214.864-.32 1.397-.32.598 0 1.096.124 1.494.373.405.242.707.576.906 1.003.206.419.31.903.31 1.45v.245a.233.233 0 0 1-.086.182.245.245 0 0 1-.181.074H95.56v.086c.007.227.05.437.128.629.085.185.203.334.352.448a.916.916 0 0 0 .555.171c.177 0 .323-.025.437-.075a.9.9 0 0 0 .277-.181c.079-.071.136-.132.171-.182a.516.516 0 0 1 .15-.128.451.451 0 0 1 .191-.032h1.11c.07 0 .127.022.17.064.05.036.071.089.064.16-.007.114-.067.256-.181.427a2.063 2.063 0 0 1-.48.491c-.213.156-.48.288-.8.394-.313.107-.675.16-1.088.16zm-1.056-3.402h2.09v-.021c0-.256-.042-.477-.127-.662a.97.97 0 0 0-.352-.448.984.984 0 0 0-.566-.16.984.984 0 0 0-.565.16 1.038 1.038 0 0 0-.363.448 1.696 1.696 0 0 0-.117.662v.021zm8.042 3.402c-.406 0-.743-.067-1.014-.202a2.07 2.07 0 0 1-.661-.534v.363a.263.263 0 0 1-.074.192.26.26 0 0 1-.192.075h-1.014a.26.26 0 0 1-.192-.075.263.263 0 0 1-.074-.192v-7.039a.26.26 0 0 1 .074-.192.26.26 0 0 1 .192-.075h1.099a.257.257 0 0 1 .256.267v2.325c.178-.199.398-.359.661-.48.263-.128.576-.192.939-.192.369 0 .689.064.96.192.277.121.512.295.704.522.192.221.337.484.437.79.106.305.163.643.17 1.013a5.794 5.794 0 0 1 0 .725 3.6 3.6 0 0 1-.181 1.035 2.358 2.358 0 0 1-.437.8c-.185.22-.416.391-.693.512-.271.113-.591.17-.96.17zm-.48-1.28c.27 0 .483-.057.64-.17a.969.969 0 0 0 .33-.47c.071-.192.114-.401.128-.629a4.86 4.86 0 0 0 0-.661 2.189 2.189 0 0 0-.128-.629.908.908 0 0 0-.33-.459c-.157-.121-.37-.181-.64-.181-.256 0-.466.057-.63.17-.156.114-.277.26-.362.438-.078.17-.121.355-.128.554a7.237 7.237 0 0 0 0 .8c.014.213.057.413.128.597.071.185.188.338.352.459.163.121.377.181.64.181zm6.529 1.174c-.441 0-.818-.072-1.131-.214a1.55 1.55 0 0 1-.715-.682c-.156-.306-.234-.69-.234-1.152v-2.24h-.832a.257.257 0 0 1-.267-.267v-.725a.26.26 0 0 1 .075-.192.26.26 0 0 1 .192-.075h.832v-1.759a.26.26 0 0 1 .074-.192.284.284 0 0 1 .192-.075h1.046a.26.26 0 0 1 .192.075.26.26 0 0 1 .074.192v1.759h1.334c.071 0 .131.025.181.075a.26.26 0 0 1 .075.192v.725a.257.257 0 0 1-.256.267h-1.334v2.112c0 .27.047.483.139.64.1.149.27.224.512.224h.779a.25.25 0 0 1 .181.074c.05.05.075.111.075.182v.789a.26.26 0 0 1-.075.192.246.246 0 0 1-.181.075h-.928zm3.877 0a.22.22 0 0 1-.16-.064.247.247 0 0 1-.064-.16c0-.036.004-.068.011-.096l2.538-6.858a.415.415 0 0 1 .128-.203.387.387 0 0 1 .267-.085h1.365c.114 0 .203.028.267.085a.415.415 0 0 1 .128.203l2.538 6.858c.007.028.011.06.011.096 0 .056-.021.11-.064.16a.22.22 0 0 1-.16.064h-1.109c-.107 0-.185-.025-.235-.075a.37.37 0 0 1-.096-.139l-.459-1.194h-3.007l-.459 1.194a.37.37 0 0 1-.096.139c-.05.05-.128.075-.235.075h-1.109zm2.293-2.784h2.208l-1.098-3.072-1.11 3.072zm5.793 2.784a.245.245 0 0 1-.181-.075.26.26 0 0 1-.075-.192v-5.013a.26.26 0 0 1 .075-.192.245.245 0 0 1 .181-.075h.992c.071 0 .131.025.181.075.057.05.085.114.085.192v.363c.143-.199.338-.37.587-.512.256-.142.558-.217.907-.224.824-.014 1.39.298 1.695.938.164-.277.399-.501.704-.672a2.047 2.047 0 0 1 1.024-.266c.37 0 .704.085 1.003.256.298.163.533.419.704.768.178.341.266.782.266 1.322v3.04a.26.26 0 0 1-.074.192.247.247 0 0 1-.182.075h-1.055a.247.247 0 0 1-.182-.075.26.26 0 0 1-.074-.192v-2.954c0-.292-.043-.52-.128-.683a.777.777 0 0 0-.342-.363.97.97 0 0 0-.458-.106.971.971 0 0 0-.438.106.85.85 0 0 0-.341.363c-.085.163-.128.391-.128.683v2.954a.257.257 0 0 1-.267.267h-1.045a.26.26 0 0 1-.192-.075.26.26 0 0 1-.074-.192v-2.954c0-.292-.043-.52-.128-.683a.777.777 0 0 0-.342-.363.946.946 0 0 0-.448-.106.898.898 0 0 0-.437.117.834.834 0 0 0-.352.352c-.085.163-.128.387-.128.672v2.965a.26.26 0 0 1-.075.192.245.245 0 0 1-.181.075h-1.077zm11.979.106c-.59 0-1.084-.096-1.482-.288a2.153 2.153 0 0 1-.917-.842c-.207-.363-.32-.786-.342-1.27a9.886 9.886 0 0 1-.01-.48c0-.184.003-.344.01-.479.022-.491.142-.914.363-1.27.22-.362.53-.64.928-.832.398-.199.881-.298 1.45-.298.562 0 1.042.099 1.44.298.398.192.708.47.928.832.221.356.341.779.363 1.27.014.135.021.295.021.479 0 .178-.007.338-.021.48-.022.484-.139.907-.352 1.27a2.088 2.088 0 0 1-.907.842c-.398.192-.889.288-1.472.288zm0-1.173c.349 0 .612-.107.79-.32.177-.22.273-.54.288-.96.007-.107.01-.249.01-.427a6.9 6.9 0 0 0-.01-.426c-.015-.413-.111-.729-.288-.949-.178-.221-.441-.331-.79-.331-.348 0-.615.11-.8.331-.177.22-.273.536-.288.949a6.9 6.9 0 0 0-.01.426c0 .178.003.32.01.427.015.42.111.74.288.96.185.213.452.32.8.32zm5.905 1.173c-.413 0-.779-.092-1.099-.277a1.974 1.974 0 0 1-.736-.821c-.17-.363-.256-.8-.256-1.312v-2.976a.26.26 0 0 1 .075-.192c.05-.05.11-.075.181-.075h1.131a.26.26 0 0 1 .192.075.26.26 0 0 1 .074.192v2.912c0 .796.349 1.194 1.046 1.194.334 0 .597-.103.789-.309.199-.213.299-.508.299-.885v-2.912a.26.26 0 0 1 .074-.192.26.26 0 0 1 .192-.075h1.131c.071 0 .131.025.181.075a.26.26 0 0 1 .075.192v5.013a.26.26 0 0 1-.075.192.246.246 0 0 1-.181.075h-1.046a.256.256 0 0 1-.266-.267v-.416a1.806 1.806 0 0 1-.715.587c-.291.135-.647.202-1.066.202zm4.947-.106a.246.246 0 0 1-.181-.075.26.26 0 0 1-.075-.192v-5.013a.26.26 0 0 1 .075-.192c.05-.05.11-.075.181-.075h1.045a.257.257 0 0 1 .267.267v.416a2.18 2.18 0 0 1 .715-.565c.291-.15.647-.224 1.066-.224.42 0 .786.096 1.099.288.32.185.569.458.746.821.185.355.278.789.278 1.301v2.976a.244.244 0 0 1-.086.192.246.246 0 0 1-.181.075h-1.131a.26.26 0 0 1-.192-.075.263.263 0 0 1-.074-.192v-2.912c0-.377-.093-.668-.278-.874-.177-.214-.44-.32-.789-.32-.334 0-.601.106-.8.32-.199.206-.298.497-.298.874v2.912a.26.26 0 0 1-.075.192.246.246 0 0 1-.181.075h-1.131zm9.097 0c-.44 0-.817-.072-1.13-.214a1.55 1.55 0 0 1-.715-.682c-.156-.306-.234-.69-.234-1.152v-2.24h-.832a.257.257 0 0 1-.267-.267v-.725a.257.257 0 0 1 .267-.267h.832v-1.759c0-.079.024-.143.074-.192a.284.284 0 0 1 .192-.075h1.045a.257.257 0 0 1 .267.267v1.759h1.333c.071 0 .132.025.182.075.049.05.074.114.074.192v.725a.26.26 0 0 1-.074.192.248.248 0 0 1-.182.075h-1.333v2.112c0 .27.046.483.139.64.099.149.27.224.512.224h.778a.251.251 0 0 1 .256.256v.789a.263.263 0 0 1-.074.192.248.248 0 0 1-.182.075h-.928z" fill="#fff"/>
        <rect x="30.896" y="341.328" width="298.209" height="42.985" rx="8.888" fill="#fff"/>
        <rect x="31.563" y="341.995" width="296.876" height="41.652" rx="8.221" stroke="#191B30" stroke-opacity=".4" stroke-width="1.333"/>
    </g>
</svg>
