<svg width="64" height="64" viewBox="0 0 64 64" fill="none" xmlns="http://www.w3.org/2000/svg">
    <path fill-rule="evenodd" clip-rule="evenodd" d="M42.306 10.802a5.468 5.468 0 1 1-10.937.001 5.468 5.468 0 0 1 10.937-.001zm3.655 10.472v12.684a3.506 3.506 0 0 1-1.87 3.102l1.622 7.935a2.552 2.552 0 0 1-2.554 2.554H41.6v8.409a2.708 2.708 0 0 1-2.707 2.708h-4.114a2.708 2.708 0 0 1-2.706-2.708v-8.41h-1.555c-.17 0-.338-.017-.5-.05v-2.756a4.36 4.36 0 0 0 3.2-4.197v-9.301a4.355 4.355 0 0 0-3.773-4.309 5.752 5.752 0 0 0 1.09-3.37c0-1.783-.812-3.38-2.084-4.442a3.497 3.497 0 0 1 2.769-1.36H42.45a3.508 3.508 0 0 1 3.51 3.511z" fill="#40A79D"/>
    <path fill-rule="evenodd" clip-rule="evenodd" d="M24.748 27.576a4.006 4.006 0 0 1-4.01-4.01 4.01 4.01 0 0 1 4.01-4.01c1.187 0 2.25.518 2.986 1.338a3.99 3.99 0 0 1-.022 5.367 4.042 4.042 0 0 1-.723.631 3.991 3.991 0 0 1-2.241.684zm6.692 3.667v9.301a2.574 2.574 0 0 1-2.572 2.575h-.627v13.562a1.985 1.985 0 0 1-1.985 1.985h-3.018a1.986 1.986 0 0 1-1.985-1.985V43.119h-.625a2.575 2.575 0 0 1-2.574-2.575v-9.3a2.574 2.574 0 0 1 2.575-2.574h8.236a2.574 2.574 0 0 1 2.576 2.573z" fill="#8DE0D8"/>
</svg>
