<svg width="360" height="360" viewBox="0 0 360 360" fill="none" xmlns="http://www.w3.org/2000/svg">
    <path d="M360 175.9c0 69.56-61.203 128.197-144.716 146.199a254.024 254.024 0 0 1-41.198 5.382 267.57 267.57 0 0 1-12.927.318c-6.365 0-12.655-.226-18.869-.679a251.383 251.383 0 0 1-10.255-.939c-32.965-3.697-63.302-13.572-88.925-28.04a197.65 197.65 0 0 1-9.379-5.633 186.993 186.993 0 0 1-16.157-11.535c-34.227-27.28-5.691-85.507 12.147-122.165C77.866 59.868 51.343 24 161.159 24 270.974 24 360 92.006 360 175.9z" fill="#F2F2F2"/>
    <path d="M281.278 86.534c-34.132-.612-34.126-51.335.001-51.942 34.13.612 34.125 51.335-.001 51.942z" fill="#fff"/>
    <path d="M293.674 65.065a1.19 1.19 0 0 0-1.143-.87c-.12 0-.234.02-.354.056l-3.005.95c-.959.302-1.846.798-2.639 1.413-.886.684-1.856 1.242-2.628 1.242h-4.444a.523.523 0 0 1 0-1.044h4.444c.641 0 1.204-.766.954-1.554-.167-.516-.683-.84-1.225-.84h-2.869a1.88 1.88 0 0 1-.986-.276l-3.359-2.097a1.885 1.885 0 0 0-.996-.287h-2.415v-.26a.932.932 0 0 0-.933-.934l-2.467-.01a.932.932 0 0 0-.929.933v7.625c0 .512.418.929.929.929l2.467.01a.931.931 0 0 0 .933-.928v-.495h.392c.224 0 .443.052.646.146l4.261 2.028a4.472 4.472 0 0 0 3.495.147c.584-.225 1.288-.49 2.049-.778 3.057-1.152 7.234-2.978 9.096-3.687a1.18 1.18 0 0 0 .726-1.419zm-22.829 3.844a.747.747 0 1 1 0-1.492.746.746 0 1 1 0 1.492z" fill="#40A79D"/>
    <path d="M283.412 49.94a7.77 7.77 0 0 0-7.104 10.917c.23.068.454.172.663.303l2.519 1.57a6.355 6.355 0 0 1-2.457-5.023c0-3.51 2.864-6.374 6.379-6.374 3.51 0 6.373 2.864 6.373 6.374a6.39 6.39 0 0 1-4.699 6.154c.355.27.626.641.767 1.074.015.047.026.089.036.136a7.769 7.769 0 0 0-2.477-15.13z" fill="#8DE0D8"/>
    <path d="M283.41 52.378a5.337 5.337 0 0 0-5.331 5.331 5.337 5.337 0 0 0 5.331 5.331 5.336 5.336 0 0 0 5.33-5.33 5.337 5.337 0 0 0-5.33-5.332zm-.003 4.787c.988 0 1.791.813 1.791 1.81a1.8 1.8 0 0 1-1.249 1.727v.296a.544.544 0 0 1-.542.547.543.543 0 0 1-.537-.547v-.296a1.8 1.8 0 0 1-1.249-1.726c0-.301.246-.547.542-.547.296 0 .542.246.542.547 0 .396.316.722.702.722a.716.716 0 0 0 .707-.722.716.716 0 0 0-.707-.722c-.983 0-1.786-.813-1.786-1.811 0-.798.507-1.49 1.249-1.731v-.291c0-.301.241-.547.537-.547.301 0 .542.246.542.547v.29a1.81 1.81 0 0 1 1.249 1.732.547.547 0 0 1-.542.546.547.547 0 0 1-.542-.546.716.716 0 0 0-.707-.723.715.715 0 0 0-.702.723.715.715 0 0 0 .702.722z" fill="#40A79D"/>
    <path d="M214.774 158.228c-37.9-.679-37.894-57.003.001-57.677 37.899.679 37.893 57.003-.001 57.677z" fill="#fff"/>
    <path d="M214.774 158.325c-37.9-.679-37.894-57.003.001-57.678 37.899.68 37.893 57.004-.001 57.678zm0-55.93c-35.603.639-35.598 53.549.001 54.182 35.602-.638 35.597-53.548-.001-54.182z" fill="#E6E6E6"/>
    <path fill="#8DE0D8" d="M207.688 131.351h7.722v8.688h-7.722z"/>
    <path fill-rule="evenodd" clip-rule="evenodd" d="M216.572 119.053c2.474 2.884 7.185 8.408 7.874 9.214a.454.454 0 0 1-.322.772h-12.556v-8.455c.442-.525.882-1.052 1.318-1.582 1.297-1.576 2.315-1.547 3.686.051zm-5.003 21.951v-2.632h1.406a.83.83 0 0 0 .827-.828v-3.819a.83.83 0 0 0-.827-.828h-1.406v-2.861h11.361c.25 0 .453.203.453.453v10.061a.453.453 0 0 1-.453.454h-1.155a.454.454 0 0 1-.454-.454v-5.748a.19.19 0 0 0-.189-.189h-3.302a.19.19 0 0 0-.189.189v5.748a.453.453 0 0 1-.453.454h-5.619zm0-11.966h-6.286c-.467-.007-.643-.367-.343-.747 2.203-2.575 4.446-5.115 6.628-7.708l.001 8.455zm0 .997v2.862h-1.407a.83.83 0 0 0-.827.828v3.819a.83.83 0 0 0 .827.828h1.407v2.632h-5.091a.453.453 0 0 1-.453-.454v-10.061c0-.251.203-.453.453-.453l5.091-.001z" fill="#40A79D"/>
    <path d="M284.166 238.675c-34.131-.612-34.126-51.336.001-51.943 34.131.612 34.125 51.336-.001 51.943z" fill="#fff"/>
    <path fill-rule="evenodd" clip-rule="evenodd" d="M283.59 218.945s-1.926-1.442-4.417-1.921c-2.533-.487-5.846.471-5.846.471v-13.239s3.302-.96 5.83-.474c2.497.48 4.433 1.924 4.433 1.924v13.239zm11.043-14.64v13.239s-3.037-.959-5.57-.472c-2.492.479-4.48 1.921-4.48 1.921v-13.239s1.999-1.444 4.497-1.924c2.526-.486 5.553.475 5.553.475z" fill="#40A79D"/>
    <path fill-rule="evenodd" clip-rule="evenodd" d="M295.606 205.459v13.456s-3.829-1.076-6.673-.529c-2.547.489-4.422 1.872-4.739 2.116v.041l-.026-.021a.504.504 0 0 0-.026.021v-.041c-.316-.244-2.191-1.626-4.738-2.116-2.845-.547-7.048.529-7.048.529v-13.496l-.787.118v14.497s4.581-1.179 7.697-.579c3.064.589 4.915 2.362 4.915 2.362s1.851-1.773 4.915-2.362c3.116-.6 7.509.579 7.509.579v-14.435s-.382-.064-.999-.14z" fill="#8DE0D8"/>
    <path d="M281.301 86.622c-34.132-.612-34.127-51.335.001-51.942 34.13.612 34.125 51.335-.001 51.942zm0-50.368c-32.063.575-32.058 48.224.001 48.794 32.062-.575 32.056-48.224-.001-48.794z" fill="#E6E6E6"/>
    <path d="M131.915 325.82a4.015 4.015 0 0 1-.159-.751l-9.913-56.523a5.1 5.1 0 0 0-1.565-3.126 5.107 5.107 0 0 0-2.773-1.342l-56.528.246a5.064 5.064 0 0 0-5.315 2.807 238.17 238.17 0 0 0-2.701 5.83c-3.568 7.939-6.852 16.333-9.85 25.18 25.622 14.468 55.959 24.343 88.924 28.04l-.12-.361z" fill="#2F2E41"/>
    <path d="M187.096 174.566c-.139.611-.23 1.232-.271 1.857l-48.654 28.068-11.826-6.808-12.607 16.505 19.764 14.087a9.06 9.06 0 0 0 10.871-.265l50.17-39.58a11.893 11.893 0 0 0 13.096-3.344 11.89 11.89 0 0 0-10.525-19.592 11.883 11.883 0 0 0-6.423 2.974 11.88 11.88 0 0 0-3.595 6.098z" fill="#FFB8B8"/>
    <path d="M137.505 201.686a5.112 5.112 0 0 0-2.509-3.428l-22.325-12.484a14.153 14.153 0 0 0-17.356 22.364l17.799 18.483a5.089 5.089 0 0 0 3.95 1.555 5.106 5.106 0 0 0 3.758-1.974l3.467-4.497 1.184-1.531 11.074-14.352c.404-.524.7-1.123.871-1.762a5.07 5.07 0 0 0 .087-2.374z" fill="#40A79D"/>
    <path d="M105.18 163.619c10.863-10.863 10.863-28.476 0-39.34-10.864-10.863-28.477-10.863-39.34 0-10.864 10.864-10.864 28.477 0 39.34 10.863 10.864 28.476 10.864 39.34 0z" fill="#FFB8B8"/>
    <path d="M120.683 249.24c1.117-1.67 8.218-12.946 5.532-26.162a29.257 29.257 0 0 0-.742-2.903 32.417 32.417 0 0 0-5.956-10.886 26.34 26.34 0 0 0-.028-2.624v-.005a25.034 25.034 0 0 0-23.11-23.331l-31.112-2.364a24.795 24.795 0 0 0-21.222 9.032 26.58 26.58 0 0 0-1.642 2.215H42.4l-.002.001v.002l-.001.001a24.759 24.759 0 0 0-3.207 20.332l.265 1.166 3.317 14.544 5.547 24.338 4.641 20.366.491 2.147a5.111 5.111 0 0 0 4.969 3.962c.277.002.554-.021.828-.067l60.201-9.87a5.033 5.033 0 0 0 2.326-1.021c.405-.323.76-.704 1.054-1.131a5.037 5.037 0 0 0 .78-3.934l-2.927-13.808z" fill="#40A79D"/>
    <path d="M2.204 331.386a12.163 12.163 0 0 1 .65-14.814 12.18 12.18 0 0 1 4.187-3.205l34.276-105.385 19.864 9.426L23.677 320.02a12.232 12.232 0 0 1-21.473 11.366z" fill="#FFB8B8"/>
    <path d="M60.948 183.088a15.172 15.172 0 0 0-18.545 9.123H42.4l-.002.002v.001l-.001.002c-.125.323-.24.66-.342.997l-2.903 6.157-8.772 18.609a5.45 5.45 0 0 0 3.355 7.549l1.71.515 7.327 2.215 13.005 3.928 4.333 1.31a5.46 5.46 0 0 0 4.502-.617 5.449 5.449 0 0 0 2.474-3.812l4.006-27.174a15.146 15.146 0 0 0-10.145-18.805z" fill="#40A79D"/>
    <path d="M111.053 133.833c-9.912 8.671-25.13 10.685-36.955 4.89 5.312 6.302 15.401 37.413 15.401 37.413s-28.487-2.994-32.512-3.855c-23.772-5.083-15.131-66.649 10.2-66.338 4.29.053 8.04.572 10.895 3.774 1.896-5.313 7.923-8.443 13.549-8.037 5.626.405 10.714 3.784 14.333 8.111a31.035 31.035 0 0 1 6.565 25.442l-1.476-1.4z" fill="#2F2E41"/>
    <path d="M180.271 89.412c-25.267-.453-25.263-38.002 0-38.451 25.266.453 25.262 38.001 0 38.45z" fill="#fff"/>
    <path fill-rule="evenodd" clip-rule="evenodd" d="M183.196 64.066a1.583 1.583 0 1 1-3.166.001 1.583 1.583 0 0 1 3.166-.001zm1.059 3.033v3.672c0 .39-.22.728-.542.899l.47 2.297a.74.74 0 0 1-.739.74h-.452v2.435a.784.784 0 0 1-.784.784h-1.192a.784.784 0 0 1-.783-.784v-2.435h-.45a.735.735 0 0 1-.145-.014v-.799c.534-.146.927-.636.927-1.215v-2.694c0-.637-.477-1.165-1.093-1.247a1.665 1.665 0 0 0-.288-2.262c.186-.24.476-.394.802-.394h3.252c.563 0 1.017.455 1.017 1.017z" fill="#40A79D"/>
    <path fill-rule="evenodd" clip-rule="evenodd" d="M178.112 68.923a1.161 1.161 0 1 1-.001-2.324 1.161 1.161 0 0 1 .001 2.324zm1.938 1.062v2.694a.746.746 0 0 1-.745.745h-.181v3.927a.575.575 0 0 1-.575.575h-.874a.575.575 0 0 1-.575-.575v-3.927h-.181a.746.746 0 0 1-.746-.745v-2.694c0-.412.334-.745.746-.745h2.385c.412 0 .746.334.746.745z" fill="#8DE0D8"/>
    <path d="M180.263 89.477c-25.266-.453-25.262-38.001.001-38.45 25.265.452 25.262 38-.001 38.45zm0-37.286c-23.734.426-23.731 35.699.001 36.12 23.734-.425 23.73-35.697-.001-36.12z" fill="#E6E6E6"/>
    <path d="M210.604 235.777c-25.267-.453-25.263-38.002 0-38.452 25.266.453 25.262 38.003 0 38.452z" fill="#fff"/>
    <path fill-rule="evenodd" clip-rule="evenodd" d="M210.152 209.201a1.898 1.898 0 1 0-3.796.002 1.898 1.898 0 0 0 3.796-.002zm3.418 6.683h-2.258l.409 1.972h1.31c.293 0 .568.073.81.201.213.107.403.262.554.463.058.074.11.153.156.236l1.246 2.24a.108.108 0 0 0 .09.056h.011l.655.026a.365.365 0 0 1 .292.168l.183.285a.365.365 0 0 1-.071.476l-1.152.972a.413.413 0 0 1-.6-.067l-1.877-2.492h-3.443c-.35 0-.675-.104-.948-.282a1.85 1.85 0 0 1-.91-1.592l-.902-5.043a1.848 1.848 0 0 1 3.693 0l.175.84h2.577a.771.771 0 0 1 0 1.541z" fill="#40A79D"/>
    <path fill-rule="evenodd" clip-rule="evenodd" d="M206.984 216.654a4.403 4.403 0 0 0-1.626 3.419 4.409 4.409 0 0 0 8.16 2.321s.828 1.055.888 1.1a5.756 5.756 0 0 1-4.638 2.343 5.766 5.766 0 0 1-5.764-5.763 5.76 5.76 0 0 1 2.663-4.859c.012-.007.321 1.436.317 1.439z" fill="#8DE0D8"/>
    <path d="M210.597 235.84c-25.267-.453-25.263-38.002 0-38.451 25.266.453 25.262 38.002 0 38.451zm0-37.286c-23.736.426-23.732 35.699 0 36.121 23.735-.425 23.731-35.699 0-36.121z" fill="#E6E6E6"/>
    <path d="M306.843 166.948c-30.974-.555-30.969-46.587.001-47.137 30.973.555 30.968 46.586-.001 47.137z" fill="#fff"/>
    <path d="M310.893 150.802a8.48 8.48 0 0 1-12.187-10.033l.076.39a.851.851 0 0 0 .848.678h.17a.847.847 0 0 0 .661-1l-.534-2.757a.851.851 0 0 0-1.001-.661l-2.747.551h-.001a.857.857 0 0 0-.455 1.508c.176.143.4.211.625.188h.17l.865-.22a10.173 10.173 0 0 0 3.176 12.01 10.175 10.175 0 0 0 11.157.822.851.851 0 0 0-.848-1.476h.025z" fill="#8DE0D8"/>
    <path d="M306.712 137.622a.845.845 0 0 0-.848.848v.45h-.102a2.545 2.545 0 0 0-2.442 2.638 2.542 2.542 0 0 0 2.442 2.646h.102v1.891h-1.06a.848.848 0 1 0 0 1.696h1.06a.838.838 0 0 0 .068.339v.382a.848.848 0 0 0 1.696 0v-.729a2.547 2.547 0 0 0 2.477-2.638 2.545 2.545 0 0 0-2.434-2.646h-.111v-1.891h1.061a.848.848 0 0 0 0-1.697h-1.061v-.449a.845.845 0 0 0-.848-.84zm.958 6.582a.849.849 0 0 1 .738.941.848.848 0 0 1-.737.95h-.111v-1.9l.11.009zm-1.798-1.697h-.101a.848.848 0 0 1-.755-.95.848.848 0 0 1 .746-.949h.102l.008 1.899z" fill="#40A79D"/>
    <path d="m317.093 147.206-.984.195a10.174 10.174 0 0 0-2.554-11.55 10.172 10.172 0 0 0-11.754-1.333.852.852 0 0 0 .848 1.476 8.485 8.485 0 0 1 9.476.837 8.482 8.482 0 0 1 2.737 9.111l-.051-.263a.865.865 0 1 0-1.696.331l.551 2.748a.848.848 0 0 0 .848.678h.17l2.748-.551a.865.865 0 1 0-.331-1.696l-.008.017z" fill="#8DE0D8"/>
    <path d="M306.834 167.027c-30.974-.555-30.969-46.586.001-47.137 30.974.555 30.969 46.586-.001 47.137zm0-45.709c-29.097.522-29.092 43.763.001 44.281 29.096-.522 29.092-43.763-.001-44.281zM284.084 238.967c-34.132-.612-34.127-51.336.001-51.943 34.13.612 34.125 51.336-.001 51.943zm0-50.369c-32.063.575-32.058 48.224.001 48.795 32.061-.575 32.056-48.224-.001-48.795z" fill="#E6E6E6"/>
    <path d="M225.37 310.409c-2.258 4.689-5.936 8.483-10.086 11.69a254.024 254.024 0 0 1-41.198 5.382 265.826 265.826 0 0 1-12.928.318c-6.364 0-12.654-.226-18.868-.679a15.311 15.311 0 0 1-.096-4.323c.688-5.628 4.959-10.799 10.5-11.993 5.542-1.194 11.859 2.113 13.539 7.525.929-10.438 1.993-21.309 7.544-30.197 5.022-8.045 13.722-13.803 23.154-14.834a29.14 29.14 0 0 1 16.114 2.952 26.9 26.9 0 0 1 9.124 7.351c5.883 7.444 7.323 18.267 3.201 26.808z" fill="#fff"/>
    <path d="M214.403 276.972a.728.728 0 0 1-.299.659 152.56 152.56 0 0 0-40.018 49.85c-.674.034-1.349.068-2.027.092a151.478 151.478 0 0 1 2.667-5.161 155.114 155.114 0 0 1 16.807-24.877 153.132 153.132 0 0 1 21.31-21.16.878.878 0 0 1 .202-.126.99.99 0 0 1 1.358.723z" fill="#F2F2F2"/>
</svg>
